<svg width="1374" height="1187" viewBox="0 0 1374 1187" fill="none" xmlns="http://www.w3.org/2000/svg">
<g filter="url(#filter0_dg_21_162)">
<path d="M1368.5 1178.5C1096.53 1178.5 1063.27 1178.5 686.75 1178.5C310.23 1178.5 245.648 1178.5 5 1178.5C5 1086.82 310.23 1012.5 686.75 1012.5C1063.27 1012.5 1368.5 1086.82 1368.5 1178.5Z" fill="#823800"/>
</g>
<g filter="url(#filter1_d_21_162)">
<path d="M705.544 541.069L778.789 461.304L830.538 401.694L886.417 345.974L867.16 377.722L785.158 474.91L902.987 484.629L785.158 489.164L749.332 518.32L707.137 565.619L705.544 572.607V596.72L720.002 739.094L827.354 671.878L902.987 631.06L987.353 606.155L1043.84 601.62L979.35 624.297L912.541 649.201L780.382 732.135L722.953 768.151L729.429 831.915L730.075 910.246L735.001 905.131L814.615 853.297L848.053 835.803L892.637 826.732L942.794 806.646L1024.8 796.928L993.747 809.886L973.843 821.549L937.619 835.803L892.637 853.297L856.015 858.48L945.979 900.595L1020.02 917.441L993.747 924.568L937.619 917.441L826.558 874.679L730.602 973.956L731.796 1118.41C731.808 1119.87 730.836 1121.16 729.429 1121.54L723.855 1122.83L714.302 1126.07L703.155 1127.37H692.01L676.883 1126.07L668.922 1126.72L657.775 1123.48L656.62 1122.78C655.37 1122.01 654.637 1120.63 654.709 1119.16L662.449 962.729L515.742 880.51L464.313 867.551H420.526L464.313 860.424L515.742 867.551L606.822 915.497L660.96 935.991H663.772L668.922 831.915V822.861H666.533L606.026 800.547L586.123 785.265L553.481 769.066L430.08 741.854L364 716.585L452.372 736.671L551.093 752.869L514.471 681.597L553.481 732.783L586.123 752.869L606.026 769.066L629.114 785.265L666.533 800.547H668.922V699.976L652.275 685.034L526.942 622.412L478.987 598.246L453.493 540.585L495.885 589.443L636.108 654.699L668.922 668.626V601.902L677.679 489.164L705.544 322V541.069Z" fill="url(#paint0_linear_21_162)"/>
<path d="M705.544 541.069L778.789 461.304L830.538 401.694L886.417 345.974L867.16 377.722L785.158 474.91L902.987 484.629L785.158 489.164L749.332 518.32L707.137 565.619L705.544 572.607V596.72L720.002 739.094L827.354 671.878L902.987 631.06L987.353 606.155L1043.84 601.62L979.35 624.297L912.541 649.201L780.382 732.135L722.953 768.151L729.429 831.915L730.075 910.246L735.001 905.131L814.615 853.297L848.053 835.803L892.637 826.732L942.794 806.646L1024.8 796.928L993.747 809.886L973.843 821.549L937.619 835.803L892.637 853.297L856.015 858.48L945.979 900.595L1020.02 917.441L993.747 924.568L937.619 917.441L826.558 874.679L730.602 973.956L731.796 1118.41C731.808 1119.87 730.836 1121.16 729.429 1121.54L723.855 1122.83L714.302 1126.07L703.155 1127.37H692.01L676.883 1126.07L668.922 1126.72L657.775 1123.48L656.62 1122.78C655.37 1122.01 654.637 1120.63 654.709 1119.16L662.449 962.729L515.742 880.51L464.313 867.551H420.526L464.313 860.424L515.742 867.551L606.822 915.497L660.96 935.991H663.772L668.922 831.915V822.861H666.533L606.026 800.547L586.123 785.265L553.481 769.066L430.08 741.854L364 716.585L452.372 736.671L551.093 752.869L514.471 681.597L553.481 732.783L586.123 752.869L606.026 769.066L629.114 785.265L666.533 800.547H668.922V699.976L652.275 685.034L526.942 622.412L478.987 598.246L453.493 540.585L495.885 589.443L636.108 654.699L668.922 668.626V601.902L677.679 489.164L705.544 322V541.069Z" fill="black" fill-opacity="0.2"/>
</g>
<g filter="url(#filter2_f_21_162)">
<path d="M706.617 6C791.292 6.00019 880.053 101.802 880.054 169.881C880.054 174.195 879.696 178.295 879.007 182.189C960.256 186.717 942.774 208.94 970.24 265.36C970.24 276.878 960.883 290.839 944.912 305.781C1044.07 335.775 1118.7 404.083 1118.7 463.442C1118.7 508.159 1068.51 543.002 998.452 564.759C1071.7 585.687 1122.17 629.768 1122.17 680.764C1122.17 688.924 1120.88 696.907 1118.41 704.647C1128.08 739.491 1124.25 786.075 1124.25 822.709C1106.22 911.062 1055.57 938.139 934.166 938.139C899.99 938.139 869.621 918.448 845.861 890.62C828.83 900.368 809.288 905.922 787.092 905.922C747.579 905.922 700.531 891.756 656.976 868.534C602.113 914.907 521.35 940.836 471.441 940.836C390.212 940.836 324.362 848.642 324.362 734.915C324.362 718.042 325.811 701.643 328.545 685.949C309.41 666.46 298 641.9 298 615.211C298 577.137 321.219 543.396 356.962 522.529C340.652 501.42 331.3 476.847 331.3 450.617C331.3 380.693 397.742 322.532 485.383 310.427C480.707 284.84 479.762 260.658 479.762 243.701C479.762 223.861 508.288 210.267 550.786 200.975C555.542 131.044 624.906 6 706.617 6ZM777.317 559.932C776.683 565.016 776.126 570.148 775.694 575.281C780.535 573.28 785.52 571.389 790.638 569.617C785.961 566.154 781.524 562.932 777.317 559.932ZM655.152 503.04C632.597 507.37 600.249 518.087 560.977 551.421C563.847 554.842 566.494 558.392 568.899 562.061C571.637 563.653 574.375 565.295 577.11 566.984C599.375 541.781 626.405 519.61 655.152 503.04ZM757.112 408.807C729.59 418.64 701.97 426.628 676.014 431.832C679.283 445.107 680.948 458.643 680.948 471.993C684.737 478.191 687.369 482.916 688.912 486.551C699.987 482.108 711.137 478.586 722.203 476.12C723.849 472.339 725.602 468.136 727.43 463.442C751.589 455.88 756.296 434.289 757.112 408.807Z" fill="#0AA61A"/>
</g>
<path d="M888.506 593.169C888.228 593.2 887.973 593.34 887.798 593.559C887.623 593.778 887.542 594.057 887.573 594.336C887.604 594.614 887.744 594.869 887.963 595.044C888.182 595.219 888.461 595.3 888.739 595.269C888.739 595.269 888.739 595.269 888.739 595.269C889.655 595.168 890.571 595.066 891.487 594.964C900.902 593.892 910.347 592.882 919.709 590.936C919.711 590.936 919.712 590.936 919.714 590.935C926.701 589.531 933.908 586.951 939.393 582.025C940.109 581.406 940.802 580.763 941.474 580.1C941.678 579.9 941.793 579.627 941.795 579.342C941.796 579.056 941.684 578.782 941.484 578.579C941.283 578.375 941.01 578.26 940.724 578.259C940.439 578.257 940.164 578.369 939.962 578.57C939.962 578.57 939.962 578.57 939.962 578.57C939.321 579.204 938.665 579.817 937.989 580.405C932.818 585.06 926.164 587.472 919.275 588.868C919.273 588.868 919.272 588.869 919.27 588.869C910.075 590.781 900.654 591.794 891.252 592.863C890.337 592.966 889.422 593.067 888.506 593.169Z" fill="#072D0A"/>
<path d="M408.129 675.37C407.94 675.496 407.809 675.692 407.765 675.915C407.72 676.138 407.766 676.369 407.892 676.558C408.018 676.747 408.214 676.878 408.436 676.923C408.659 676.967 408.89 676.921 409.079 676.795C409.079 676.795 409.079 676.795 409.079 676.795C411.029 675.496 413.004 674.235 414.999 673C424.81 666.939 434.995 661.491 445.389 656.47C445.407 656.462 445.425 656.453 445.443 656.444L445.12 656.528C470.548 655.051 495.913 660.342 519.794 668.987L519.838 669.002C519.85 669.005 519.861 669.009 519.873 669.012C524.956 670.559 530.191 671.586 535.423 672.303C537.77 672.628 540.114 672.898 542.465 673.137C542.669 673.158 542.874 673.1 543.036 672.973C543.198 672.846 543.303 672.661 543.329 672.458C543.354 672.255 543.298 672.05 543.173 671.887C543.048 671.724 542.863 671.617 542.661 671.587C542.661 671.587 542.661 671.587 542.661 671.587C540.334 671.236 538.019 670.873 535.707 670.474C530.548 669.59 525.46 668.502 520.482 666.988C520.471 666.984 520.46 666.981 520.449 666.977L520.493 666.992C496.45 658.288 470.707 653.318 445.022 654.818L444.699 654.901C444.681 654.91 444.663 654.919 444.645 654.927C434.205 659.971 423.974 665.442 414.097 671.543C412.088 672.787 410.098 674.058 408.129 675.37Z" fill="#072D0A"/>
<path d="M944.374 794.512C944.203 794.529 944.046 794.613 943.937 794.747C943.828 794.88 943.776 795.051 943.794 795.222C943.811 795.393 943.895 795.55 944.028 795.659C944.161 795.768 944.332 795.82 944.503 795.802C944.503 795.802 944.503 795.802 944.503 795.802C945.432 795.71 946.36 795.617 947.288 795.524C957.668 794.496 968.05 793.435 978.437 792.716C978.437 792.716 978.437 792.716 978.437 792.716C984.773 792.28 991.107 792.084 997.458 792.087C998.39 792.085 999.322 792.085 1000.25 792.085C1000.43 792.085 1000.59 792.016 1000.71 791.895C1000.83 791.773 1000.9 791.608 1000.9 791.436C1000.9 791.264 1000.83 791.099 1000.71 790.978C1000.59 790.856 1000.43 790.788 1000.25 790.788C999.322 790.788 998.389 790.788 997.455 790.79C991.089 790.787 984.709 790.984 978.35 791.422C978.35 791.422 978.35 791.422 978.35 791.422C967.926 792.143 957.542 793.206 947.159 794.234C946.231 794.326 945.303 794.419 944.374 794.512Z" fill="#072D0A"/>
<path d="M843.97 304.562C844.125 304.562 844.274 304.5 844.384 304.39C844.494 304.28 844.556 304.131 844.556 303.976C844.556 303.82 844.494 303.671 844.384 303.561C844.274 303.451 844.125 303.39 843.97 303.39C843.474 303.39 842.978 303.39 842.481 303.39C833.551 303.39 824.62 303.39 815.69 303.39C815.194 303.39 814.698 303.39 814.201 303.39C814.046 303.39 813.897 303.451 813.787 303.561C813.677 303.671 813.615 303.82 813.615 303.976C813.615 304.131 813.677 304.28 813.787 304.39C813.897 304.5 814.046 304.562 814.201 304.562C814.698 304.562 815.194 304.562 815.69 304.562C824.62 304.562 833.551 304.562 842.481 304.562C842.978 304.562 843.474 304.562 843.97 304.562Z" fill="#072D0A"/>
<path d="M500.514 400.724C500.514 401.02 500.632 401.304 500.841 401.514C501.051 401.723 501.335 401.841 501.631 401.841C501.928 401.841 502.212 401.723 502.421 401.514C502.631 401.304 502.749 401.02 502.749 400.724C502.753 398.816 503.716 396.825 504.926 395.043C513.275 384.199 526.267 377.344 538.552 370.795L538.389 370.863C538.437 370.848 538.486 370.832 538.534 370.816C558.363 364.367 579.242 360.843 600.071 361.528L600.025 361.526C600.038 361.526 600.05 361.527 600.063 361.528C605.875 361.954 611.661 362.83 617.508 363.574C619.773 363.862 622.043 364.13 624.319 364.367C624.544 364.391 624.77 364.327 624.949 364.187C625.128 364.048 625.244 363.843 625.272 363.619C625.3 363.395 625.239 363.168 625.1 362.989C624.962 362.809 624.758 362.691 624.534 362.658C624.534 362.658 624.534 362.658 624.534 362.658C622.281 362.326 620.035 361.976 617.788 361.619C611.993 360.7 606.155 359.723 600.233 359.289C600.22 359.288 600.207 359.287 600.194 359.286L600.148 359.283C579.004 358.589 557.886 362.173 537.842 368.692C537.793 368.707 537.744 368.723 537.695 368.739L537.532 368.808C525.097 375.484 512.124 382.111 503.079 393.786C501.755 395.764 500.547 398.036 500.514 400.724Z" fill="#072D0A"/>
<path d="M825.923 306.58C825.627 306.432 825.284 306.408 824.97 306.513C824.656 306.617 824.397 306.842 824.248 307.138C824.1 307.434 824.076 307.777 824.181 308.091C824.285 308.405 824.511 308.665 824.807 308.813C824.807 308.813 824.807 308.813 824.807 308.813C825.689 309.255 826.599 309.708 827.547 310.114C829.734 311.066 832.087 311.684 834.422 312.019C834.425 312.019 834.428 312.02 834.431 312.02C839.98 312.782 845.664 312.499 851.063 310.764C851.073 310.761 851.082 310.757 851.092 310.754C860.73 306.805 869.214 301.852 878.616 298.143C879.543 297.759 880.425 297.399 881.365 297.021C881.49 296.971 881.592 296.871 881.647 296.746C881.702 296.621 881.706 296.48 881.658 296.353C881.611 296.227 881.514 296.124 881.39 296.066C881.266 296.009 881.125 296 880.997 296.045C880.997 296.045 880.997 296.045 880.997 296.045C880.039 296.384 879.139 296.702 878.191 297.042C868.704 300.244 859.294 304.749 850.319 308.397C850.31 308.4 850.302 308.403 850.293 308.406C845.364 309.983 839.954 310.266 834.792 309.55C834.789 309.55 834.786 309.549 834.783 309.549C832.608 309.235 830.524 308.686 828.532 307.82C827.664 307.449 826.806 307.023 825.923 306.58Z" fill="#072D0A"/>
<defs>
<filter id="filter0_dg_21_162" x="0" y="1007.5" width="1373.5" height="179" filterUnits="userSpaceOnUse" color-interpolation-filters="sRGB">
<feFlood flood-opacity="0" result="BackgroundImageFix"/>
<feColorMatrix in="SourceAlpha" type="matrix" values="0 0 0 0 0 0 0 0 0 0 0 0 0 0 0 0 0 0 127 0" result="hardAlpha"/>
<feOffset dy="4"/>
<feGaussianBlur stdDeviation="2"/>
<feComposite in2="hardAlpha" operator="out"/>
<feColorMatrix type="matrix" values="0 0 0 0 0 0 0 0 0 0 0 0 0 0 0 0 0 0 0.25 0"/>
<feBlend mode="normal" in2="BackgroundImageFix" result="effect1_dropShadow_21_162"/>
<feBlend mode="normal" in="SourceGraphic" in2="effect1_dropShadow_21_162" result="shape"/>
<feTurbulence type="fractalNoise" baseFrequency="0.1428571492433548 0.1428571492433548" numOctaves="3" seed="8717" />
<feDisplacementMap in="shape" scale="10" xChannelSelector="R" yChannelSelector="G" result="displacedImage" width="100%" height="100%" />
<feMerge result="effect2_texture_21_162">
<feMergeNode in="displacedImage"/>
</feMerge>
</filter>
<filter id="filter1_d_21_162" x="360" y="322" width="687.837" height="813.368" filterUnits="userSpaceOnUse" color-interpolation-filters="sRGB">
<feFlood flood-opacity="0" result="BackgroundImageFix"/>
<feColorMatrix in="SourceAlpha" type="matrix" values="0 0 0 0 0 0 0 0 0 0 0 0 0 0 0 0 0 0 127 0" result="hardAlpha"/>
<feOffset dy="4"/>
<feGaussianBlur stdDeviation="2"/>
<feComposite in2="hardAlpha" operator="out"/>
<feColorMatrix type="matrix" values="0 0 0 0 0 0 0 0 0 0 0 0 0 0 0 0 0 0 0.25 0"/>
<feBlend mode="normal" in2="BackgroundImageFix" result="effect1_dropShadow_21_162"/>
<feBlend mode="normal" in="SourceGraphic" in2="effect1_dropShadow_21_162" result="shape"/>
</filter>
<filter id="filter2_f_21_162" x="292" y="0" width="839" height="946.836" filterUnits="userSpaceOnUse" color-interpolation-filters="sRGB">
<feFlood flood-opacity="0" result="BackgroundImageFix"/>
<feBlend mode="normal" in="SourceGraphic" in2="BackgroundImageFix" result="shape"/>
<feGaussianBlur stdDeviation="3" result="effect1_foregroundBlur_21_162"/>
</filter>
<linearGradient id="paint0_linear_21_162" x1="703.457" y1="1149.4" x2="703.457" y2="471.022" gradientUnits="userSpaceOnUse">
<stop stop-color="#623F24"/>
<stop offset="1" stop-color="#946846"/>
</linearGradient>
</defs>
</svg>
