<svg width="564" height="1131" viewBox="0 0 564 1131" fill="none" xmlns="http://www.w3.org/2000/svg">
<g filter="url(#filter0_dn_21_163)">
<path d="M280.558 629.197C433.816 629.197 559.194 652.626 559.195 677.29V677.291L545.263 756.146C545.3 756.173 545.32 756.193 545.32 756.21C545.32 759.747 540.594 763.148 531.873 766.33L436.2 1096.7H436.195C436.195 1097.7 371.536 1122.7 283.86 1122.7C196.866 1122.7 128.269 1098.08 127.208 1096.72L127.195 1096.7H127.19L31.5635 766.491C22.5775 763.263 17.7021 759.806 17.7021 756.21C17.7023 756.165 17.8349 756.088 18.0967 755.979L4.19531 677.291V677.29C4.19654 652.626 127.3 629.197 280.558 629.197Z" fill="#BF5200"/>
</g>
<g filter="url(#filter1_f_21_163)">
<path fill-rule="evenodd" clip-rule="evenodd" d="M48.6953 770.545L67.6953 774.545L77.6953 776.545L88.6953 778.045L94.1953 778.545L99.1953 779.045L104.695 779.545L107.195 780.045L113.195 780.545L151.195 784.045L188.195 1113.2L177.695 1111.04L160.695 1107.04L143.695 1102.54L134.695 1099.7L131.624 1098.54L130.195 1098.04L129.195 1097.7L127.195 1096.7L32.1953 766.045L48.6953 770.545ZM29.6953 672.697V684.697L48.1953 696.697L84.6953 706.697L143.195 714.697L151.195 783.697L121.195 780.697L95.1953 777.697L63.6953 772.697L40.6953 768.197L25.0449 763.535C20.2483 762.106 16.698 758.051 15.916 753.107L4.10646 678.457C3.55589 674.977 5.17382 671.51 8.19533 669.697L10.1953 667.697L14.6953 664.697L20.6953 661.697L26.1953 659.197L32.6953 656.697L38.1953 654.697L48.1953 651.697L58.1953 649.197L68.6953 647.197L84.6953 643.697L91.6953 642.197L29.6953 672.697Z" fill="#552500" fill-opacity="0.2"/>
</g>
<path d="M17.7034 755.542L20.1577 759.552L23.8413 762.226L28.1389 764.232L34.8922 766.906L42.2595 768.911L60.0637 772.922L70.5006 774.928L84.0073 776.933L100.584 778.939L107.951 779.607L149.085 783.618L185.921 785.624L281.695 787.629L354.754 786.292L429.04 782.281L459.123 779.607L490.434 775.596L507.625 772.254L522.973 768.243L535.252 764.232L538.935 762.226L542.619 759.552L545.075 756.21" stroke="black"/>
<g filter="url(#filter2_dn_21_163)">
<path d="M280.558 629.197C433.816 629.197 559.194 652.626 559.195 677.29V677.291L545.263 756.146C545.3 756.173 545.32 756.193 545.32 756.21C545.32 759.747 540.594 763.148 531.873 766.33L436.2 1096.7H436.195C436.195 1097.7 371.536 1122.7 283.86 1122.7C196.866 1122.7 128.269 1098.08 127.208 1096.72L127.195 1096.7H127.19L31.5635 766.491C22.5775 763.263 17.7021 759.806 17.7021 756.21C17.7023 756.165 17.8349 756.088 18.0967 755.979L4.19531 677.291V677.29C4.19654 652.626 127.3 629.197 280.558 629.197Z" fill="#BF5200"/>
</g>
<g filter="url(#filter3_f_21_163)">
<path fill-rule="evenodd" clip-rule="evenodd" d="M48.6953 770.545L67.6953 774.545L77.6953 776.545L88.6953 778.045L94.1953 778.545L99.1953 779.045L104.695 779.545L107.195 780.045L113.195 780.545L151.195 784.045L188.195 1113.2L177.695 1111.04L160.695 1107.04L143.695 1102.54L134.695 1099.7L131.624 1098.54L130.195 1098.04L129.195 1097.7L127.195 1096.7L32.1953 766.045L48.6953 770.545ZM29.6953 672.697V684.697L48.1953 696.697L84.6953 706.697L143.195 714.697L151.195 783.697L121.195 780.697L95.1953 777.697L63.6953 772.697L40.6953 768.197L25.0449 763.535C20.2483 762.106 16.698 758.051 15.916 753.107L4.10646 678.457C3.55589 674.977 5.17382 671.51 8.19533 669.697L10.1953 667.697L14.6953 664.697L20.6953 661.697L26.1953 659.197L32.6953 656.697L38.1953 654.697L48.1953 651.697L58.1953 649.197L68.6953 647.197L84.6953 643.697L91.6953 642.197L29.6953 672.697Z" fill="#552500" fill-opacity="0.2"/>
</g>
<path d="M17.7034 755.542L20.1577 759.552L23.8413 762.226L28.1389 764.232L34.8922 766.906L42.2595 768.911L60.0637 772.922L70.5006 774.928L84.0073 776.933L100.584 778.939L107.951 779.607L149.085 783.618L185.921 785.624L281.695 787.629L354.754 786.292L429.04 782.281L459.123 779.607L490.434 775.596L507.625 772.254L522.973 768.243L535.252 764.232L538.935 762.226L542.619 759.552L545.075 756.21" stroke="black"/>
<g filter="url(#filter4_gf_21_163)">
<path fill-rule="evenodd" clip-rule="evenodd" d="M317.286 631.834C339.029 625.936 365.971 623.214 392.877 624.197C419.782 625.18 444.733 629.798 462.88 637.154C472.254 640.954 485.071 647.745 495.272 654.792C526.659 661.91 545.195 670.693 545.195 680.197C545.195 703.945 429.461 723.197 286.695 723.197C143.93 723.197 28.1953 703.945 28.1953 680.197C28.1956 673.531 37.315 667.219 53.5918 661.588C66.3399 647.822 104.918 631.197 146.195 631.197C174.6 633.382 202.045 635.55 223.945 638.475C244.035 637.642 265.055 637.197 286.695 637.197C288.979 637.197 291.257 637.203 293.526 637.213C301.401 635.531 309.729 633.883 317.286 631.834Z" fill="#823800"/>
<path fill-rule="evenodd" clip-rule="evenodd" d="M317.286 631.834C339.029 625.936 365.971 623.214 392.877 624.197C419.782 625.18 444.733 629.798 462.88 637.154C472.254 640.954 485.071 647.745 495.272 654.792C526.659 661.91 545.195 670.693 545.195 680.197C545.195 703.945 429.461 723.197 286.695 723.197C143.93 723.197 28.1953 703.945 28.1953 680.197C28.1956 673.531 37.315 667.219 53.5918 661.588C66.3399 647.822 104.918 631.197 146.195 631.197C174.6 633.382 202.045 635.55 223.945 638.475C244.035 637.642 265.055 637.197 286.695 637.197C288.979 637.197 291.257 637.203 293.526 637.213C301.401 635.531 309.729 633.883 317.286 631.834Z" fill="black" fill-opacity="0.3"/>
</g>
<g filter="url(#filter5_d_21_163)">
<path fill-rule="evenodd" clip-rule="evenodd" d="M288.131 222.032L327.833 160.477L355.883 114.477L386.172 71.4766L375.734 95.9766L331.285 170.977L395.153 178.477L331.285 181.977L311.866 204.477L288.994 240.977L288.131 246.371V264.977L295.968 374.847L354.157 322.977L395.153 291.477L440.883 272.258L471.5 268.758L436.545 286.258L400.332 305.477L328.696 369.477L297.566 397.27L301.077 446.477L301.428 506.925L304.099 502.977L347.252 462.977L365.377 449.477L389.544 442.477L416.73 426.977L461.18 419.477L444.35 429.477L433.561 438.477L413.926 449.477L389.544 462.977L369.692 466.977L418.457 499.477L458.59 512.477L444.35 517.977L413.926 512.477L353.726 479.477L301.713 556.089L302.364 668.089C302.369 668.924 301.856 669.676 301.077 669.977L298.057 670.977L292.878 673.477L286.837 674.477H280.795L272.596 673.477L268.28 673.977L262.238 671.477L261.953 671.228C261.042 670.436 260.537 669.275 260.579 668.069L264.771 547.425L185.251 483.977L157.374 473.977H133.64L157.374 468.477L185.251 473.977L234.62 510.977L263.965 526.791H265.489L268.28 446.477V439.489H266.985L234.188 422.27L223.4 410.477L205.707 397.977L138.818 376.977L103 357.477L150.901 372.977L204.412 385.477L184.562 330.477L205.707 369.977L223.4 385.477L234.188 397.977L246.703 410.477L266.985 422.27H268.28V344.659L259.257 333.129L191.321 284.804L165.328 266.154L151.509 221.658L174.487 259.362L250.494 309.72L268.28 320.467V268.977L273.027 181.977L288.131 52.9766V222.032Z" fill="url(#paint0_linear_21_163)"/>
<path fill-rule="evenodd" clip-rule="evenodd" d="M288.131 222.032L327.833 160.477L355.883 114.477L386.172 71.4766L375.734 95.9766L331.285 170.977L395.153 178.477L331.285 181.977L311.866 204.477L288.994 240.977L288.131 246.371V264.977L295.968 374.847L354.157 322.977L395.153 291.477L440.883 272.258L471.5 268.758L436.545 286.258L400.332 305.477L328.696 369.477L297.566 397.27L301.077 446.477L301.428 506.925L304.099 502.977L347.252 462.977L365.377 449.477L389.544 442.477L416.73 426.977L461.18 419.477L444.35 429.477L433.561 438.477L413.926 449.477L389.544 462.977L369.692 466.977L418.457 499.477L458.59 512.477L444.35 517.977L413.926 512.477L353.726 479.477L301.713 556.089L302.364 668.089C302.369 668.924 301.856 669.676 301.077 669.977L298.057 670.977L292.878 673.477L286.837 674.477H280.795L272.596 673.477L268.28 673.977L262.238 671.477L261.953 671.228C261.042 670.436 260.537 669.275 260.579 668.069L264.771 547.425L185.251 483.977L157.374 473.977H133.64L157.374 468.477L185.251 473.977L234.62 510.977L263.965 526.791H265.489L268.28 446.477V439.489H266.985L234.188 422.27L223.4 410.477L205.707 397.977L138.818 376.977L103 357.477L150.901 372.977L204.412 385.477L184.562 330.477L205.707 369.977L223.4 385.477L234.188 397.977L246.703 410.477L266.985 422.27H268.28V344.659L259.257 333.129L191.321 284.804L165.328 266.154L151.509 221.658L174.487 259.362L250.494 309.72L268.28 320.467V268.977L273.027 181.977L288.131 52.9766V222.032Z" fill="black" fill-opacity="0.2"/>
</g>
<g filter="url(#filter6_dn_21_163)">
<path d="M414.646 512.67C422.292 512.937 449.26 501.17 481.536 502.297C513.813 503.424 536.001 526.401 535.396 543.699C534.792 560.997 505.239 568.573 476.525 558.088C437.657 539.966 419.303 521.901 414.646 512.67ZM55.4326 344.977C93.0078 344.977 126.928 354.431 135 367.666C126.015 384.724 105.948 405.104 79.4814 415.067C90.6496 415.34 102.819 418.365 114.554 424.344C145.301 440.011 161.02 469.864 175.128 479.613C152.626 496.32 105.185 515.687 74.4375 500.021C43.6899 484.354 28.3253 455.944 39.1963 434.608C42.5743 427.979 48.1605 422.965 55.1787 419.674C25.4851 416.675 7.00018 392.057 7 379.641C7 371.447 17.9551 350.019 55.4326 344.977ZM501.614 381.977C532.333 381.977 556 395.038 556 412.094C556 429.15 531.097 442.977 500.379 442.977C469.66 442.977 445.13 429.113 430 427.487C441.095 409.608 470.896 381.977 501.614 381.977ZM132.449 297.696C138.781 283.475 160.025 284.464 174.526 300.25C192.805 324.883 198.165 344.414 197.927 353.23C193.197 351.124 172.141 354.254 152.173 345.363C132.205 336.473 126.117 311.918 132.449 297.696ZM492.541 247.977C519.771 247.977 537 266.405 537 275.405C537 280.977 528.013 295.548 497.271 298.977C466.447 298.977 438.622 292.548 432 283.548C440.987 269.405 463.487 251.9 492.541 247.977ZM111.471 155.498C126.461 149.135 147.938 165.944 159.44 193.043C170.943 220.142 167.945 246.954 172.182 260.907C152.313 257.79 116.868 241.81 105.365 214.711C93.8626 187.612 96.4803 161.861 111.471 155.498ZM364.452 175.294C383.073 172.689 398.359 173.561 413.799 180.876C429.238 188.191 425.096 204.091 428.101 209.045C431.105 213.998 407.167 214.74 397.571 210.194C382.132 202.88 370.154 191.142 364.452 175.294ZM237.666 0C271.775 17.8042 294.939 37.2343 307.992 67.1514C321.045 97.0685 288.827 117.615 285.693 129.083C282.559 140.55 242.898 113.493 234.786 94.8994C221.733 64.9824 221.354 32.0758 237.666 0ZM400.237 45.2129C429.13 28.5318 457.497 35.4453 462.423 43.9766C465.472 49.258 463.911 68.5759 433.167 90.6592C400.462 109.542 367.419 120.493 355.468 116.019C357.263 97.1071 371.557 66.7304 400.237 45.2129Z" fill="#00A510"/>
</g>
<g filter="url(#filter7_dn_21_163)">
<path d="M529.264 545.012L529 545.977L430 518.977L430.263 518.012L529.264 545.012ZM165.31 480.025L165 480.977L48 442.977L48.3086 442.025L165.31 480.025ZM549 411.977L437 419.977L436.929 418.979L548.929 410.979L549 411.977ZM128 369.977L20 381.977L19.8896 380.982L127.89 368.982L128 369.977ZM192.655 344.222L192 344.977L139 298.977L139.655 298.222L192.655 344.222ZM529 272.977L437 280.977L436.913 279.98L528.914 271.98L529 272.977ZM167.434 256.228L167 256.477L166.566 256.727L111.566 161.227L112.434 160.727L167.434 256.228ZM422.502 206.111L422 206.977L372 177.977L372.502 177.111L422.502 206.111ZM279.268 125.562L278.317 125.873L238.683 5.08008L239.633 4.76758L279.268 125.562ZM455 46.9766L363 109.977L362.435 109.151L454.435 46.1514L455 46.9766Z" fill="white"/>
</g>
<defs>
<filter id="filter0_dn_21_163" x="0.195312" y="629.197" width="563" height="501.5" filterUnits="userSpaceOnUse" color-interpolation-filters="sRGB">
<feFlood flood-opacity="0" result="BackgroundImageFix"/>
<feColorMatrix in="SourceAlpha" type="matrix" values="0 0 0 0 0 0 0 0 0 0 0 0 0 0 0 0 0 0 127 0" result="hardAlpha"/>
<feOffset dy="4"/>
<feGaussianBlur stdDeviation="2"/>
<feComposite in2="hardAlpha" operator="out"/>
<feColorMatrix type="matrix" values="0 0 0 0 0 0 0 0 0 0 0 0 0 0 0 0 0 0 0.25 0"/>
<feBlend mode="normal" in2="BackgroundImageFix" result="effect1_dropShadow_21_163"/>
<feBlend mode="normal" in="SourceGraphic" in2="BackgroundImageFix" result="shape"/>
<feTurbulence type="fractalNoise" baseFrequency="2 2" stitchTiles="stitch" numOctaves="3" result="noise" seed="3852" />
<feColorMatrix in="noise" type="luminanceToAlpha" result="alphaNoise" />
<feComponentTransfer in="alphaNoise" result="coloredNoise1">
<feFuncA type="discrete" tableValues="0 0 0 0 0 0 0 0 0 0 0 0 0 0 0 0 0 1 1 1 1 1 1 1 1 1 1 1 1 1 1 1 1 0 0 0 0 0 0 0 0 0 0 0 0 0 0 0 0 0 0 0 0 0 0 0 0 0 0 0 0 0 0 0 0 0 0 0 0 0 0 0 0 0 0 0 0 0 0 0 0 0 0 0 0 0 0 0 0 0 0 0 0 0 0 0 0 0 0 0 "/>
</feComponentTransfer>
<feComposite operator="in" in2="shape" in="coloredNoise1" result="noise1Clipped" />
<feComponentTransfer in="alphaNoise" result="coloredNoise2">
<feFuncA type="discrete" tableValues="0 0 0 0 0 0 0 0 0 0 0 0 0 0 0 0 0 0 0 0 0 0 0 0 0 0 0 0 0 0 0 0 0 0 0 0 0 0 0 0 0 0 0 0 0 0 0 0 0 0 0 0 0 0 0 0 0 0 0 0 0 0 0 0 0 0 0 1 1 1 1 1 1 1 1 1 1 1 1 1 1 1 1 0 0 0 0 0 0 0 0 0 0 0 0 0 0 0 0 0 "/>
</feComponentTransfer>
<feComposite operator="in" in2="shape" in="coloredNoise2" result="noise2Clipped" />
<feFlood flood-color="rgba(0, 0, 0, 0.25)" result="color1Flood" />
<feComposite operator="in" in2="noise1Clipped" in="color1Flood" result="color1" />
<feFlood flood-color="rgba(255, 255, 255, 0.25)" result="color2Flood" />
<feComposite operator="in" in2="noise2Clipped" in="color2Flood" result="color2" />
<feMerge result="effect2_noise_21_163">
<feMergeNode in="shape" />
<feMergeNode in="color1" />
<feMergeNode in="color2" />
</feMerge>
<feBlend mode="normal" in="effect2_noise_21_163" in2="effect1_dropShadow_21_163" result="effect2_noise_21_163"/>
</filter>
<filter id="filter1_f_21_163" x="0" y="638.197" width="192.195" height="479" filterUnits="userSpaceOnUse" color-interpolation-filters="sRGB">
<feFlood flood-opacity="0" result="BackgroundImageFix"/>
<feBlend mode="normal" in="SourceGraphic" in2="BackgroundImageFix" result="shape"/>
<feGaussianBlur stdDeviation="2" result="effect1_foregroundBlur_21_163"/>
</filter>
<filter id="filter2_dn_21_163" x="0.195312" y="629.197" width="563" height="501.5" filterUnits="userSpaceOnUse" color-interpolation-filters="sRGB">
<feFlood flood-opacity="0" result="BackgroundImageFix"/>
<feColorMatrix in="SourceAlpha" type="matrix" values="0 0 0 0 0 0 0 0 0 0 0 0 0 0 0 0 0 0 127 0" result="hardAlpha"/>
<feOffset dy="4"/>
<feGaussianBlur stdDeviation="2"/>
<feComposite in2="hardAlpha" operator="out"/>
<feColorMatrix type="matrix" values="0 0 0 0 0 0 0 0 0 0 0 0 0 0 0 0 0 0 0.25 0"/>
<feBlend mode="normal" in2="BackgroundImageFix" result="effect1_dropShadow_21_163"/>
<feBlend mode="normal" in="SourceGraphic" in2="BackgroundImageFix" result="shape"/>
<feTurbulence type="fractalNoise" baseFrequency="2 2" stitchTiles="stitch" numOctaves="3" result="noise" seed="3852" />
<feColorMatrix in="noise" type="luminanceToAlpha" result="alphaNoise" />
<feComponentTransfer in="alphaNoise" result="coloredNoise1">
<feFuncA type="discrete" tableValues="0 0 0 0 0 0 0 0 0 0 0 0 0 0 0 0 0 1 1 1 1 1 1 1 1 1 1 1 1 1 1 1 1 0 0 0 0 0 0 0 0 0 0 0 0 0 0 0 0 0 0 0 0 0 0 0 0 0 0 0 0 0 0 0 0 0 0 0 0 0 0 0 0 0 0 0 0 0 0 0 0 0 0 0 0 0 0 0 0 0 0 0 0 0 0 0 0 0 0 0 "/>
</feComponentTransfer>
<feComposite operator="in" in2="shape" in="coloredNoise1" result="noise1Clipped" />
<feComponentTransfer in="alphaNoise" result="coloredNoise2">
<feFuncA type="discrete" tableValues="0 0 0 0 0 0 0 0 0 0 0 0 0 0 0 0 0 0 0 0 0 0 0 0 0 0 0 0 0 0 0 0 0 0 0 0 0 0 0 0 0 0 0 0 0 0 0 0 0 0 0 0 0 0 0 0 0 0 0 0 0 0 0 0 0 0 0 1 1 1 1 1 1 1 1 1 1 1 1 1 1 1 1 0 0 0 0 0 0 0 0 0 0 0 0 0 0 0 0 0 "/>
</feComponentTransfer>
<feComposite operator="in" in2="shape" in="coloredNoise2" result="noise2Clipped" />
<feFlood flood-color="rgba(0, 0, 0, 0.25)" result="color1Flood" />
<feComposite operator="in" in2="noise1Clipped" in="color1Flood" result="color1" />
<feFlood flood-color="rgba(255, 255, 255, 0.25)" result="color2Flood" />
<feComposite operator="in" in2="noise2Clipped" in="color2Flood" result="color2" />
<feMerge result="effect2_noise_21_163">
<feMergeNode in="shape" />
<feMergeNode in="color1" />
<feMergeNode in="color2" />
</feMerge>
<feBlend mode="normal" in="effect2_noise_21_163" in2="effect1_dropShadow_21_163" result="effect2_noise_21_163"/>
</filter>
<filter id="filter3_f_21_163" x="0" y="638.197" width="192.195" height="479" filterUnits="userSpaceOnUse" color-interpolation-filters="sRGB">
<feFlood flood-opacity="0" result="BackgroundImageFix"/>
<feBlend mode="normal" in="SourceGraphic" in2="BackgroundImageFix" result="shape"/>
<feGaussianBlur stdDeviation="2" result="effect1_foregroundBlur_21_163"/>
</filter>
<filter id="filter4_gf_21_163" x="24.1953" y="620" width="525" height="107.197" filterUnits="userSpaceOnUse" color-interpolation-filters="sRGB">
<feFlood flood-opacity="0" result="BackgroundImageFix"/>
<feBlend mode="normal" in="SourceGraphic" in2="BackgroundImageFix" result="shape"/>
<feTurbulence type="fractalNoise" baseFrequency="0.25 0.25" numOctaves="3" seed="336" />
<feDisplacementMap in="shape" scale="8" xChannelSelector="R" yChannelSelector="G" result="displacedImage" width="100%" height="100%" />
<feMerge result="effect1_texture_21_163">
<feMergeNode in="displacedImage"/>
</feMerge>
<feGaussianBlur stdDeviation="2" result="effect2_foregroundBlur_21_163"/>
</filter>
<filter id="filter5_d_21_163" x="99" y="52.9766" width="376.5" height="629.5" filterUnits="userSpaceOnUse" color-interpolation-filters="sRGB">
<feFlood flood-opacity="0" result="BackgroundImageFix"/>
<feColorMatrix in="SourceAlpha" type="matrix" values="0 0 0 0 0 0 0 0 0 0 0 0 0 0 0 0 0 0 127 0" result="hardAlpha"/>
<feOffset dy="4"/>
<feGaussianBlur stdDeviation="2"/>
<feComposite in2="hardAlpha" operator="out"/>
<feColorMatrix type="matrix" values="0 0 0 0 0 0 0 0 0 0 0 0 0 0 0 0 0 0 0.25 0"/>
<feBlend mode="normal" in2="BackgroundImageFix" result="effect1_dropShadow_21_163"/>
<feBlend mode="normal" in="SourceGraphic" in2="effect1_dropShadow_21_163" result="shape"/>
</filter>
<filter id="filter6_dn_21_163" x="3" y="0" width="557" height="570.881" filterUnits="userSpaceOnUse" color-interpolation-filters="sRGB">
<feFlood flood-opacity="0" result="BackgroundImageFix"/>
<feColorMatrix in="SourceAlpha" type="matrix" values="0 0 0 0 0 0 0 0 0 0 0 0 0 0 0 0 0 0 127 0" result="hardAlpha"/>
<feOffset dy="4"/>
<feGaussianBlur stdDeviation="2"/>
<feComposite in2="hardAlpha" operator="out"/>
<feColorMatrix type="matrix" values="0 0 0 0 0 0 0 0 0 0 0 0 0 0 0 0 0 0 0.25 0"/>
<feBlend mode="normal" in2="BackgroundImageFix" result="effect1_dropShadow_21_163"/>
<feBlend mode="normal" in="SourceGraphic" in2="BackgroundImageFix" result="shape"/>
<feTurbulence type="fractalNoise" baseFrequency="2 2" stitchTiles="stitch" numOctaves="3" result="noise" seed="7446" />
<feColorMatrix in="noise" type="luminanceToAlpha" result="alphaNoise" />
<feComponentTransfer in="alphaNoise" result="coloredNoise1">
<feFuncA type="discrete" tableValues="1 1 1 1 1 1 1 1 1 1 1 1 1 1 1 1 1 1 1 1 1 1 1 1 1 1 1 1 1 1 1 1 1 1 1 1 1 1 1 1 1 1 1 1 1 1 1 1 1 1 1 0 0 0 0 0 0 0 0 0 0 0 0 0 0 0 0 0 0 0 0 0 0 0 0 0 0 0 0 0 0 0 0 0 0 0 0 0 0 0 0 0 0 0 0 0 0 0 0 0 "/>
</feComponentTransfer>
<feComposite operator="in" in2="shape" in="coloredNoise1" result="noise1Clipped" />
<feFlood flood-color="#05A214" result="color1Flood" />
<feComposite operator="in" in2="noise1Clipped" in="color1Flood" result="color1" />
<feMerge result="effect2_noise_21_163">
<feMergeNode in="shape" />
<feMergeNode in="color1" />
</feMerge>
<feBlend mode="normal" in="effect2_noise_21_163" in2="effect1_dropShadow_21_163" result="effect2_noise_21_163"/>
</filter>
<filter id="filter7_dn_21_163" x="15.8896" y="4.76758" width="537.11" height="549.209" filterUnits="userSpaceOnUse" color-interpolation-filters="sRGB">
<feFlood flood-opacity="0" result="BackgroundImageFix"/>
<feColorMatrix in="SourceAlpha" type="matrix" values="0 0 0 0 0 0 0 0 0 0 0 0 0 0 0 0 0 0 127 0" result="hardAlpha"/>
<feOffset dy="4"/>
<feGaussianBlur stdDeviation="2"/>
<feComposite in2="hardAlpha" operator="out"/>
<feColorMatrix type="matrix" values="0 0 0 0 0 0 0 0 0 0 0 0 0 0 0 0 0 0 0.25 0"/>
<feBlend mode="normal" in2="BackgroundImageFix" result="effect1_dropShadow_21_163"/>
<feBlend mode="normal" in="SourceGraphic" in2="BackgroundImageFix" result="shape"/>
<feTurbulence type="fractalNoise" baseFrequency="2 2" stitchTiles="stitch" numOctaves="3" result="noise" seed="7446" />
<feColorMatrix in="noise" type="luminanceToAlpha" result="alphaNoise" />
<feComponentTransfer in="alphaNoise" result="coloredNoise1">
<feFuncA type="discrete" tableValues="1 1 1 1 1 1 1 1 1 1 1 1 1 1 1 1 1 1 1 1 1 1 1 1 1 1 1 1 1 1 1 1 1 1 1 1 1 1 1 1 1 1 1 1 1 1 1 1 1 1 1 0 0 0 0 0 0 0 0 0 0 0 0 0 0 0 0 0 0 0 0 0 0 0 0 0 0 0 0 0 0 0 0 0 0 0 0 0 0 0 0 0 0 0 0 0 0 0 0 0 "/>
</feComponentTransfer>
<feComposite operator="in" in2="shape" in="coloredNoise1" result="noise1Clipped" />
<feFlood flood-color="#05A214" result="color1Flood" />
<feComposite operator="in" in2="noise1Clipped" in="color1Flood" result="color1" />
<feMerge result="effect2_noise_21_163">
<feMergeNode in="shape" />
<feMergeNode in="color1" />
</feMerge>
<feBlend mode="normal" in="effect2_noise_21_163" in2="effect1_dropShadow_21_163" result="effect2_noise_21_163"/>
</filter>
<linearGradient id="paint0_linear_21_163" x1="287" y1="691.477" x2="287" y2="167.977" gradientUnits="userSpaceOnUse">
<stop stop-color="#623F24"/>
<stop offset="1" stop-color="#946846"/>
</linearGradient>
</defs>
</svg>
