<svg width="388" height="426" viewBox="0 0 388 426" fill="none" xmlns="http://www.w3.org/2000/svg">
<g filter="url(#filter0_d_17_198)">
<path d="M383.129 232.48C383.129 353.257 316.629 451.48 199.629 404.48C87.1292 455.98 8.12908 351.48 4.12912 232.48C0.129157 113.48 89.6353 70.4804 193.32 117.48C311.098 78.4804 383.129 105.98 383.129 232.48Z" fill="url(#paint0_radial_17_198)"/>
</g>
<path d="M191.708 0L230.636 31.3777L203.231 128.48L187.24 127.922L191.708 0Z" fill="url(#paint1_linear_17_198)"/>
<g filter="url(#filter1_f_17_198)">
<ellipse cx="66.8605" cy="169.887" rx="29.4432" ry="17.4888" transform="rotate(108 66.8605 169.887)" fill="#D9D9D9" fill-opacity="0.4"/>
</g>
<g filter="url(#filter2_f_17_198)">
<path d="M258.898 123.328C259.247 127.771 240.177 145.755 214.408 149.213C184.105 151.599 152.009 141.693 151.659 137.249C151.31 132.806 176.571 140.526 211.629 140.384C234.479 139.537 258.548 118.884 258.898 123.328Z" fill="#D9D9D9" fill-opacity="0.5"/>
</g>
<path d="M232.094 394.589L350.589 290.906" stroke="#724600" stroke-width="3" stroke-linecap="round"/>
<path d="M134.156 400.594L362.594 217.844" stroke="#724600" stroke-width="3" stroke-linecap="round"/>
<path d="M15 236.728L167.457 111" stroke="#724600" stroke-width="3" stroke-linecap="round"/>
<path d="M22 296.751L232 121" stroke="#724600" stroke-width="3" stroke-linecap="round"/>
<path d="M45.1792 347.597L330.597 126.821" stroke="#724600" stroke-width="3" stroke-linecap="round"/>
<path d="M79.1698 381.596L355.596 164.83" stroke="#724600" stroke-width="3" stroke-linecap="round"/>
<path d="M41.4088 273.877L176.877 387.591" stroke="#724600" stroke-width="3" stroke-linecap="round"/>
<path d="M32 193L270.473 394.708" stroke="#724600" stroke-width="3" stroke-linecap="round"/>
<path d="M67 144L314.525 370.649" stroke="#724600" stroke-width="3" stroke-linecap="round"/>
<path d="M116 111L362.504 329.673" stroke="#724600" stroke-width="3" stroke-linecap="round"/>
<path d="M232 127L378 257" stroke="#724600" stroke-width="3" stroke-linecap="round"/>
<path d="M216.669 67.2542C218.527 62.821 221.458 58.9192 225.198 55.8997L274 16.5L208.5 128.5H191L216.669 67.2542Z" fill="url(#paint2_linear_17_198)"/>
<path d="M158.5 16L196 63.5L205.5 128.5H187L158.5 16Z" fill="url(#paint3_linear_17_198)"/>
<path d="M223 98.5L250.5 78L209 129H188L223 98.5Z" fill="url(#paint4_linear_17_198)"/>
<path d="M178 10L188 18.5L210 127H188L183 18.5L178 10Z" fill="url(#paint5_linear_17_198)"/>
<defs>
<filter id="filter0_d_17_198" x="0" y="98.8149" width="387.129" height="327.138" filterUnits="userSpaceOnUse" color-interpolation-filters="sRGB">
<feFlood flood-opacity="0" result="BackgroundImageFix"/>
<feColorMatrix in="SourceAlpha" type="matrix" values="0 0 0 0 0 0 0 0 0 0 0 0 0 0 0 0 0 0 127 0" result="hardAlpha"/>
<feOffset dy="4"/>
<feGaussianBlur stdDeviation="2"/>
<feComposite in2="hardAlpha" operator="out"/>
<feColorMatrix type="matrix" values="0 0 0 0 0 0 0 0 0 0 0 0 0 0 0 0 0 0 0.25 0"/>
<feBlend mode="normal" in2="BackgroundImageFix" result="effect1_dropShadow_17_198"/>
<feBlend mode="normal" in="SourceGraphic" in2="effect1_dropShadow_17_198" result="shape"/>
</filter>
<filter id="filter1_f_17_198" x="37.8982" y="131.363" width="57.9246" height="77.0483" filterUnits="userSpaceOnUse" color-interpolation-filters="sRGB">
<feFlood flood-opacity="0" result="BackgroundImageFix"/>
<feBlend mode="normal" in="SourceGraphic" in2="BackgroundImageFix" result="shape"/>
<feGaussianBlur stdDeviation="5" result="effect1_foregroundBlur_17_198"/>
</filter>
<filter id="filter2_f_17_198" x="141.656" y="112.702" width="127.246" height="46.8762" filterUnits="userSpaceOnUse" color-interpolation-filters="sRGB">
<feFlood flood-opacity="0" result="BackgroundImageFix"/>
<feBlend mode="normal" in="SourceGraphic" in2="BackgroundImageFix" result="shape"/>
<feGaussianBlur stdDeviation="5" result="effect1_foregroundBlur_17_198"/>
</filter>
<radialGradient id="paint0_radial_17_198" cx="0" cy="0" r="1" gradientUnits="userSpaceOnUse" gradientTransform="translate(149.129 192.48) rotate(120.784) scale(273.542 161.196)">
<stop offset="0.0236961" stop-color="#EA9E58"/>
<stop offset="1" stop-color="#EDB500"/>
</radialGradient>
<linearGradient id="paint1_linear_17_198" x1="234" y1="47.5" x2="216.5" y2="105" gradientUnits="userSpaceOnUse">
<stop offset="0.115385" stop-color="#32D500"/>
<stop offset="1" stop-color="#013604"/>
</linearGradient>
<linearGradient id="paint2_linear_17_198" x1="232.5" y1="16.5" x2="232.5" y2="128.5" gradientUnits="userSpaceOnUse">
<stop stop-color="#32D500"/>
<stop offset="1" stop-color="#1A6F00"/>
</linearGradient>
<linearGradient id="paint3_linear_17_198" x1="182" y1="16" x2="182" y2="128.5" gradientUnits="userSpaceOnUse">
<stop stop-color="#32D500"/>
<stop offset="1" stop-color="#1A6F00"/>
</linearGradient>
<linearGradient id="paint4_linear_17_198" x1="219.25" y1="78" x2="219.25" y2="129" gradientUnits="userSpaceOnUse">
<stop stop-color="#32D500"/>
<stop offset="1" stop-color="#1A6F00"/>
</linearGradient>
<linearGradient id="paint5_linear_17_198" x1="194" y1="10" x2="194" y2="127" gradientUnits="userSpaceOnUse">
<stop stop-color="#32D500"/>
<stop offset="1" stop-color="#1A6F00"/>
</linearGradient>
</defs>
</svg>
