<svg width="527" height="438" viewBox="0 0 527 438" fill="none" xmlns="http://www.w3.org/2000/svg">
<path d="M509.916 266.952C541.769 331.867 531.403 402.243 455.194 407.918C407.417 465.344 336.769 430.067 303.203 367.165C269.637 304.263 307.115 257.485 376.062 255.331C430.014 203.227 476.554 198.962 509.916 266.952Z" fill="url(#paint0_radial_19_231)"/>
<path d="M323.332 334.392C317.535 335.217 311.751 328.07 310.413 318.429C309.075 308.788 312.69 300.304 318.487 299.479C324.284 298.655 330.069 305.802 331.407 315.442C332.745 325.083 329.13 333.567 323.332 334.392Z" fill="#D9D9D9" fill-opacity="0.4"/>
<path d="M413.371 241.134C414.733 243.43 409.075 258.138 395.932 266.81C380.034 276.105 359.916 279.267 358.553 276.972C357.19 274.676 373.004 272.146 392.088 262.8C404.328 256.302 412.008 238.838 413.371 241.134Z" fill="#D9D9D9" fill-opacity="0.5"/>
<path d="M223.594 357.74C197.555 425.167 138.704 465.628 82.5533 414.099C7.71563 418.532 -14.5096 343.116 8.88097 275.816C32.2715 208.517 92.25 203.858 140.857 252.51C215.989 256.195 250.868 287.118 223.594 357.74Z" fill="url(#paint1_radial_19_231)"/>
<path d="M46.7234 268.098C42.1627 264.446 43.4764 255.367 49.6574 247.819C55.8385 240.272 64.5464 237.113 69.107 240.765C73.6677 244.417 72.354 253.496 66.173 261.044C59.9919 268.592 51.284 271.75 46.7234 268.098Z" fill="#D9D9D9" fill-opacity="0.4"/>
<path d="M176.748 269.949C175.988 272.505 161.307 278.423 145.962 274.783C128.28 269.565 112.233 257.097 112.993 254.541C113.753 251.984 126.399 261.755 146.291 269.254C159.419 273.72 177.507 267.393 176.748 269.949Z" fill="#D9D9D9" fill-opacity="0.5"/>
<path d="M234.82 0C239.468 0 243.439 2.8845 245.05 6.95996L392.24 251.923C394.876 256.311 393.457 262.006 389.069 264.643C384.681 267.279 378.986 265.859 376.349 261.471L253.746 57.4258L151.175 258.733C148.822 263.351 143.171 265.188 138.553 262.835C133.935 260.482 132.099 254.831 134.452 250.213L242.347 38.4541L228.856 16H205.154C202.208 16 199.82 13.6124 199.82 10.667C199.82 4.77595 204.596 0 210.487 0H234.82Z" fill="#793900"/>
<defs>
<radialGradient id="paint0_radial_19_231" cx="0" cy="0" r="1" gradientTransform="matrix(-129.98 100.933 -60.6674 -75.9929 99.6514 284.828)" gradientUnits="userSpaceOnUse">
<stop offset="0.0236961" stop-color="#FF0000"/>
<stop offset="1" stop-color="#990000"/>
</radialGradient>
<radialGradient id="paint1_radial_19_231" cx="0" cy="0" r="1" gradientTransform="matrix(-129.98 100.933 -60.6674 -75.9929 99.6514 284.828)" gradientUnits="userSpaceOnUse">
<stop offset="0.0236961" stop-color="#FF0000"/>
<stop offset="1" stop-color="#990000"/>
</radialGradient>
</defs>
</svg>
