<svg width="388" height="426" viewBox="0 0 388 426" fill="none" xmlns="http://www.w3.org/2000/svg">
<g filter="url(#filter0_d_17_196)">
<path d="M383.129 232.48C383.129 353.257 316.629 451.48 199.629 404.48C87.1292 455.98 8.12908 351.48 4.12912 232.48C0.129157 113.48 89.6353 70.4804 193.32 117.48C311.098 78.4804 383.129 105.98 383.129 232.48Z" fill="url(#paint0_radial_17_196)"/>
</g>
<path d="M230.065 31.56L202.857 127.967L187.758 127.44L192.172 1.01684L230.065 31.56Z" fill="url(#paint1_linear_17_196)" stroke="#904401"/>
<g filter="url(#filter1_f_17_196)">
<ellipse cx="66.8605" cy="169.887" rx="29.4432" ry="17.4888" transform="rotate(108 66.8605 169.887)" fill="#D9D9D9" fill-opacity="0.4"/>
</g>
<g filter="url(#filter2_f_17_196)">
<path d="M258.898 123.328C259.247 127.771 240.177 145.755 214.408 149.213C184.105 151.599 152.009 141.693 151.659 137.249C151.31 132.806 176.571 140.525 211.629 140.384C234.479 139.537 258.548 118.884 258.898 123.328Z" fill="#D9D9D9" fill-opacity="0.5"/>
</g>
<g filter="url(#filter3_ddf_17_196)">
<path d="M291.787 101.5L304 103L316.5 106L323 108.5L328.5 110.5L335 114L339.75 117.25L340.383 117.683C342.811 119.345 343.822 122.43 342.846 125.207L318.784 138.947L332.153 165.15L307.714 174.37L324.759 200.766L314.132 227.711L327.606 251.919L299.073 268.926L305.326 290.255L315.229 312.276L293.162 323.121L307.494 354.375L296.947 379.824L309.5 402.5C309.5 402.5 283.058 416.475 274 413.5C264.942 410.525 271.988 375.516 271.988 375.516L294.63 353.701L279.816 319.921L296.852 311.313L286.56 273.27L268 275.798L286.822 268.284L312.904 251.149L289.2 222.904L306.172 203.792L291.787 173.535L308.263 163.898L293.669 137.631L310.38 123.505L291.787 101.5Z" fill="#032E06"/>
</g>
<g filter="url(#filter4_ddf_17_196)">
<path d="M72 106.5L78 104L84.5 102.5L97.5 100L110.5 99L114.5 133L105.5 167L112 198.5L105.5 230L117.75 270.5L101 302.5L123.5 337L105.5 378.5L123.5 416.5L117.75 415L112 413.5L105.5 411.5L101 409.5L95.5 407.5L90 404.5L83.5 401L79.5 373.5L97.5 337L72 302.5L90 270.5L72 230L84.5 198.5L72 167L90 136.5L72 106.5Z" fill="#032E06"/>
</g>
<g filter="url(#filter5_ddf_17_196)">
<path d="M168 108H168.5L178 111L187.5 115V128H195L203 128.5L207.5 113L227.5 145L212.471 167.5V186L234.011 192L212.471 198L199.268 216L216.64 242L192.32 273.5L212.471 299.5L234.011 324.5L222.893 345.5V363L229 381L213 409.5L206 407L202 405.5L200 404.5L189 409L180 412L209 381L185.371 345.5L206.912 324.5L179.812 299.5L168 273.5L185.371 242.5L168 216L192.32 192L168 163L187.5 145L168 108Z" fill="#032E06"/>
</g>
<g filter="url(#filter6_f_17_196)">
<path d="M256.5 124.849C256.5 132.581 235.338 152.85 208 152.85C180.662 152.85 152.5 143.582 152.5 135.85C152.5 128.118 176.662 138.85 204 138.85C231.338 138.85 256.5 117.118 256.5 124.849Z" fill="#D9D9D9" fill-opacity="0.2"/>
</g>
<defs>
<filter id="filter0_d_17_196" x="0" y="98.8149" width="387.129" height="327.138" filterUnits="userSpaceOnUse" color-interpolation-filters="sRGB">
<feFlood flood-opacity="0" result="BackgroundImageFix"/>
<feColorMatrix in="SourceAlpha" type="matrix" values="0 0 0 0 0 0 0 0 0 0 0 0 0 0 0 0 0 0 127 0" result="hardAlpha"/>
<feOffset dy="4"/>
<feGaussianBlur stdDeviation="2"/>
<feComposite in2="hardAlpha" operator="out"/>
<feColorMatrix type="matrix" values="0 0 0 0 0 0 0 0 0 0 0 0 0 0 0 0 0 0 0.25 0"/>
<feBlend mode="normal" in2="BackgroundImageFix" result="effect1_dropShadow_17_196"/>
<feBlend mode="normal" in="SourceGraphic" in2="effect1_dropShadow_17_196" result="shape"/>
</filter>
<filter id="filter1_f_17_196" x="37.8982" y="131.363" width="57.9246" height="77.0484" filterUnits="userSpaceOnUse" color-interpolation-filters="sRGB">
<feFlood flood-opacity="0" result="BackgroundImageFix"/>
<feBlend mode="normal" in="SourceGraphic" in2="BackgroundImageFix" result="shape"/>
<feGaussianBlur stdDeviation="5" result="effect1_foregroundBlur_17_196"/>
</filter>
<filter id="filter2_f_17_196" x="141.656" y="112.702" width="127.246" height="46.8763" filterUnits="userSpaceOnUse" color-interpolation-filters="sRGB">
<feFlood flood-opacity="0" result="BackgroundImageFix"/>
<feBlend mode="normal" in="SourceGraphic" in2="BackgroundImageFix" result="shape"/>
<feGaussianBlur stdDeviation="5" result="effect1_foregroundBlur_17_196"/>
</filter>
<filter id="filter3_ddf_17_196" x="264" y="97.5" width="83.2146" height="324.416" filterUnits="userSpaceOnUse" color-interpolation-filters="sRGB">
<feFlood flood-opacity="0" result="BackgroundImageFix"/>
<feColorMatrix in="SourceAlpha" type="matrix" values="0 0 0 0 0 0 0 0 0 0 0 0 0 0 0 0 0 0 127 0" result="hardAlpha"/>
<feOffset dy="4"/>
<feGaussianBlur stdDeviation="2"/>
<feComposite in2="hardAlpha" operator="out"/>
<feColorMatrix type="matrix" values="0 0 0 0 0 0 0 0 0 0 0 0 0 0 0 0 0 0 0.25 0"/>
<feBlend mode="normal" in2="BackgroundImageFix" result="effect1_dropShadow_17_196"/>
<feColorMatrix in="SourceAlpha" type="matrix" values="0 0 0 0 0 0 0 0 0 0 0 0 0 0 0 0 0 0 127 0" result="hardAlpha"/>
<feOffset dy="4"/>
<feGaussianBlur stdDeviation="2"/>
<feComposite in2="hardAlpha" operator="out"/>
<feColorMatrix type="matrix" values="0 0 0 0 0 0 0 0 0 0 0 0 0 0 0 0 0 0 0.25 0"/>
<feBlend mode="normal" in2="effect1_dropShadow_17_196" result="effect2_dropShadow_17_196"/>
<feBlend mode="normal" in="SourceGraphic" in2="effect2_dropShadow_17_196" result="shape"/>
<feGaussianBlur stdDeviation="2" result="effect3_foregroundBlur_17_196"/>
</filter>
<filter id="filter4_ddf_17_196" x="68" y="95" width="59.5" height="329.5" filterUnits="userSpaceOnUse" color-interpolation-filters="sRGB">
<feFlood flood-opacity="0" result="BackgroundImageFix"/>
<feColorMatrix in="SourceAlpha" type="matrix" values="0 0 0 0 0 0 0 0 0 0 0 0 0 0 0 0 0 0 127 0" result="hardAlpha"/>
<feOffset dy="4"/>
<feGaussianBlur stdDeviation="2"/>
<feComposite in2="hardAlpha" operator="out"/>
<feColorMatrix type="matrix" values="0 0 0 0 0 0 0 0 0 0 0 0 0 0 0 0 0 0 0.25 0"/>
<feBlend mode="normal" in2="BackgroundImageFix" result="effect1_dropShadow_17_196"/>
<feColorMatrix in="SourceAlpha" type="matrix" values="0 0 0 0 0 0 0 0 0 0 0 0 0 0 0 0 0 0 127 0" result="hardAlpha"/>
<feOffset dy="4"/>
<feGaussianBlur stdDeviation="2"/>
<feComposite in2="hardAlpha" operator="out"/>
<feColorMatrix type="matrix" values="0 0 0 0 0 0 0 0 0 0 0 0 0 0 0 0 0 0 0.25 0"/>
<feBlend mode="normal" in2="effect1_dropShadow_17_196" result="effect2_dropShadow_17_196"/>
<feBlend mode="normal" in="SourceGraphic" in2="effect2_dropShadow_17_196" result="shape"/>
<feGaussianBlur stdDeviation="2" result="effect3_foregroundBlur_17_196"/>
</filter>
<filter id="filter5_ddf_17_196" x="164" y="104" width="74.011" height="316" filterUnits="userSpaceOnUse" color-interpolation-filters="sRGB">
<feFlood flood-opacity="0" result="BackgroundImageFix"/>
<feColorMatrix in="SourceAlpha" type="matrix" values="0 0 0 0 0 0 0 0 0 0 0 0 0 0 0 0 0 0 127 0" result="hardAlpha"/>
<feOffset dy="4"/>
<feGaussianBlur stdDeviation="2"/>
<feComposite in2="hardAlpha" operator="out"/>
<feColorMatrix type="matrix" values="0 0 0 0 0 0 0 0 0 0 0 0 0 0 0 0 0 0 0.25 0"/>
<feBlend mode="normal" in2="BackgroundImageFix" result="effect1_dropShadow_17_196"/>
<feColorMatrix in="SourceAlpha" type="matrix" values="0 0 0 0 0 0 0 0 0 0 0 0 0 0 0 0 0 0 127 0" result="hardAlpha"/>
<feOffset dy="4"/>
<feGaussianBlur stdDeviation="2"/>
<feComposite in2="hardAlpha" operator="out"/>
<feColorMatrix type="matrix" values="0 0 0 0 0 0 0 0 0 0 0 0 0 0 0 0 0 0 0.25 0"/>
<feBlend mode="normal" in2="effect1_dropShadow_17_196" result="effect2_dropShadow_17_196"/>
<feBlend mode="normal" in="SourceGraphic" in2="effect2_dropShadow_17_196" result="shape"/>
<feGaussianBlur stdDeviation="2" result="effect3_foregroundBlur_17_196"/>
</filter>
<filter id="filter6_f_17_196" x="148.5" y="119.186" width="112" height="37.6635" filterUnits="userSpaceOnUse" color-interpolation-filters="sRGB">
<feFlood flood-opacity="0" result="BackgroundImageFix"/>
<feBlend mode="normal" in="SourceGraphic" in2="BackgroundImageFix" result="shape"/>
<feGaussianBlur stdDeviation="2" result="effect1_foregroundBlur_17_196"/>
</filter>
<radialGradient id="paint0_radial_17_196" cx="0" cy="0" r="1" gradientUnits="userSpaceOnUse" gradientTransform="translate(149.129 192.48) rotate(120.784) scale(273.542 161.196)">
<stop offset="0.0236961" stop-color="#448230"/>
<stop offset="1" stop-color="#2F5B21"/>
</radialGradient>
<linearGradient id="paint1_linear_17_196" x1="224.629" y1="94.9804" x2="207.228" y2="128.62" gradientUnits="userSpaceOnUse">
<stop offset="0.163462" stop-color="#904401"/>
<stop offset="1" stop-color="#2A1400"/>
</linearGradient>
</defs>
</svg>
