<svg width="609" height="1269" viewBox="0 0 609 1269" fill="none" xmlns="http://www.w3.org/2000/svg">
<g filter="url(#filter0_dn_21_161)">
<path d="M282.558 767.197C435.816 767.197 561.194 790.626 561.195 815.29V815.291L547.263 894.146C547.3 894.173 547.32 894.193 547.32 894.21C547.32 897.747 542.594 901.148 533.873 904.33L438.2 1234.7H438.195C438.195 1235.7 373.536 1260.7 285.86 1260.7C198.866 1260.7 130.269 1236.08 129.208 1234.72L129.195 1234.7H129.19L33.5635 904.491C24.5775 901.263 19.7021 897.806 19.7021 894.21C19.7023 894.165 19.8349 894.088 20.0967 893.979L6.19531 815.291V815.29C6.19654 790.626 129.3 767.197 282.558 767.197Z" fill="#BF5200"/>
</g>
<g filter="url(#filter1_f_21_161)">
<path fill-rule="evenodd" clip-rule="evenodd" d="M50.6953 908.545L69.6953 912.545L79.6953 914.545L90.6953 916.045L96.1953 916.545L101.195 917.045L106.695 917.545L109.195 918.045L115.195 918.545L153.195 922.045L190.195 1251.2L179.695 1249.04L162.695 1245.04L145.695 1240.54L136.695 1237.7L133.624 1236.54L132.195 1236.04L131.195 1235.7L129.195 1234.7L34.1953 904.045L50.6953 908.545ZM31.6953 810.697V822.697L50.1953 834.697L86.6953 844.697L145.195 852.697L153.195 921.697L123.195 918.697L97.1953 915.697L65.6953 910.697L42.6953 906.197L27.0449 901.535C22.2483 900.106 18.698 896.051 17.916 891.107L6.10646 816.457C5.55589 812.977 7.17382 809.51 10.1953 807.697L12.1953 805.697L16.6953 802.697L22.6953 799.697L28.1953 797.197L34.6953 794.697L40.1953 792.697L50.1953 789.697L60.1953 787.197L70.6953 785.197L86.6953 781.697L93.6953 780.197L31.6953 810.697Z" fill="#552500" fill-opacity="0.2"/>
</g>
<path d="M19.7034 893.542L22.1577 897.552L25.8413 900.226L30.1389 902.232L36.8922 904.906L44.2595 906.911L62.0637 910.922L72.5006 912.928L86.0073 914.933L102.584 916.939L109.951 917.607L151.085 921.618L187.921 923.624L283.695 925.629L356.754 924.292L431.04 920.281L461.123 917.607L492.434 913.596L509.625 910.254L524.973 906.243L537.252 902.232L540.935 900.226L544.619 897.552L547.075 894.21" stroke="black"/>
<g filter="url(#filter2_dn_21_161)">
<path d="M282.558 767.197C435.816 767.197 561.194 790.626 561.195 815.29V815.291L547.263 894.146C547.3 894.173 547.32 894.193 547.32 894.21C547.32 897.747 542.594 901.148 533.873 904.33L438.2 1234.7H438.195C438.195 1235.7 373.536 1260.7 285.86 1260.7C198.866 1260.7 130.269 1236.08 129.208 1234.72L129.195 1234.7H129.19L33.5635 904.491C24.5775 901.263 19.7021 897.806 19.7021 894.21C19.7023 894.165 19.8349 894.088 20.0967 893.979L6.19531 815.291V815.29C6.19654 790.626 129.3 767.197 282.558 767.197Z" fill="#BF5200"/>
</g>
<g filter="url(#filter3_f_21_161)">
<path fill-rule="evenodd" clip-rule="evenodd" d="M50.6953 908.545L69.6953 912.545L79.6953 914.545L90.6953 916.045L96.1953 916.545L101.195 917.045L106.695 917.545L109.195 918.045L115.195 918.545L153.195 922.045L190.195 1251.2L179.695 1249.04L162.695 1245.04L145.695 1240.54L136.695 1237.7L133.624 1236.54L132.195 1236.04L131.195 1235.7L129.195 1234.7L34.1953 904.045L50.6953 908.545ZM31.6953 810.697V822.697L50.1953 834.697L86.6953 844.697L145.195 852.697L153.195 921.697L123.195 918.697L97.1953 915.697L65.6953 910.697L42.6953 906.197L27.0449 901.535C22.2483 900.106 18.698 896.051 17.916 891.107L6.10646 816.457C5.55589 812.977 7.17382 809.51 10.1953 807.697L12.1953 805.697L16.6953 802.697L22.6953 799.697L28.1953 797.197L34.6953 794.697L40.1953 792.697L50.1953 789.697L60.1953 787.197L70.6953 785.197L86.6953 781.697L93.6953 780.197L31.6953 810.697Z" fill="#552500" fill-opacity="0.2"/>
</g>
<path d="M19.7034 893.542L22.1577 897.552L25.8413 900.226L30.1389 902.232L36.8922 904.906L44.2595 906.911L62.0637 910.922L72.5006 912.928L86.0073 914.933L102.584 916.939L109.951 917.607L151.085 921.618L187.921 923.624L283.695 925.629L356.754 924.292L431.04 920.281L461.123 917.607L492.434 913.596L509.625 910.254L524.973 906.243L537.252 902.232L540.935 900.226L544.619 897.552L547.075 894.21" stroke="black"/>
<g filter="url(#filter4_gf_21_161)">
<path fill-rule="evenodd" clip-rule="evenodd" d="M319.286 769.834C341.029 763.936 367.971 761.214 394.877 762.197C421.782 763.18 446.733 767.798 464.88 775.154C474.254 778.954 487.071 785.745 497.272 792.792C528.659 799.91 547.195 808.693 547.195 818.197C547.195 841.945 431.461 861.197 288.695 861.197C145.93 861.197 30.1953 841.945 30.1953 818.197C30.1956 811.531 39.315 805.219 55.5918 799.588C68.3399 785.822 106.918 769.197 148.195 769.197C176.6 771.382 204.045 773.55 225.945 776.475C246.035 775.642 267.055 775.197 288.695 775.197C290.979 775.197 293.257 775.203 295.526 775.213C303.401 773.531 311.729 771.883 319.286 769.834Z" fill="#823800"/>
<path fill-rule="evenodd" clip-rule="evenodd" d="M319.286 769.834C341.029 763.936 367.971 761.214 394.877 762.197C421.782 763.18 446.733 767.798 464.88 775.154C474.254 778.954 487.071 785.745 497.272 792.792C528.659 799.91 547.195 808.693 547.195 818.197C547.195 841.945 431.461 861.197 288.695 861.197C145.93 861.197 30.1953 841.945 30.1953 818.197C30.1956 811.531 39.315 805.219 55.5918 799.588C68.3399 785.822 106.918 769.197 148.195 769.197C176.6 771.382 204.045 773.55 225.945 776.475C246.035 775.642 267.055 775.197 288.695 775.197C290.979 775.197 293.257 775.203 295.526 775.213C303.401 773.531 311.729 771.883 319.286 769.834Z" fill="black" fill-opacity="0.3"/>
</g>
<g filter="url(#filter5_d_21_161)">
<path d="M291.794 323.191L350.08 255.397L391.262 204.734L435.729 157.375L420.404 184.358L355.148 266.961L448.914 275.222L355.148 279.076L326.639 303.857L293.061 344.057L291.794 349.994V370.49L303.299 491.497L388.728 434.369L448.915 399.676L516.051 378.51L561 374.655L509.683 393.929L456.518 415.096L351.348 485.583L305.647 516.193L310.801 570.389L311.315 636.963L315.235 632.615L378.591 588.561L405.199 573.692L440.679 565.982L480.592 548.911L545.848 540.651L521.14 551.665L505.301 561.577L476.474 573.692L440.679 588.561L411.535 592.966L483.126 628.761L542.047 643.078L521.14 649.136L476.474 643.078L388.094 606.733L311.734 691.112L312.686 814.015C312.695 815.185 311.925 816.218 310.801 816.544L306.365 817.646L298.763 820.398L289.894 821.5H281.023L268.986 820.398L262.65 820.949L253.78 818.196L253.164 817.794C251.976 817.02 251.287 815.674 251.353 814.258L257.499 681.569L140.754 611.689L99.8271 600.676H64.9824L99.8271 594.618L140.754 600.676L213.233 641.427L256.314 658.845H258.553L262.65 570.389V562.693H260.75L212.6 543.728L196.761 530.739L170.785 516.972L72.585 493.843L20 472.366L90.3242 489.438L168.885 503.205L139.741 442.63L170.785 486.134L196.761 503.205L212.6 516.972L230.973 530.739L260.75 543.728H262.65V458.249L249.403 445.551L149.666 392.327L111.504 371.787L91.2168 322.78L124.951 364.307L236.538 419.769L262.65 431.605V374.896L269.619 279.076L291.794 137V323.191Z" fill="url(#paint0_linear_21_161)"/>
<path d="M291.794 323.191L350.08 255.397L391.262 204.734L435.729 157.375L420.404 184.358L355.148 266.961L448.914 275.222L355.148 279.076L326.639 303.857L293.061 344.057L291.794 349.994V370.49L303.299 491.497L388.728 434.369L448.915 399.676L516.051 378.51L561 374.655L509.683 393.929L456.518 415.096L351.348 485.583L305.647 516.193L310.801 570.389L311.315 636.963L315.235 632.615L378.591 588.561L405.199 573.692L440.679 565.982L480.592 548.911L545.848 540.651L521.14 551.665L505.301 561.577L476.474 573.692L440.679 588.561L411.535 592.966L483.126 628.761L542.047 643.078L521.14 649.136L476.474 643.078L388.094 606.733L311.734 691.112L312.686 814.015C312.695 815.185 311.925 816.218 310.801 816.544L306.365 817.646L298.763 820.398L289.894 821.5H281.023L268.986 820.398L262.65 820.949L253.78 818.196L253.164 817.794C251.976 817.02 251.287 815.674 251.353 814.258L257.499 681.569L140.754 611.689L99.8271 600.676H64.9824L99.8271 594.618L140.754 600.676L213.233 641.427L256.314 658.845H258.553L262.65 570.389V562.693H260.75L212.6 543.728L196.761 530.739L170.785 516.972L72.585 493.843L20 472.366L90.3242 489.438L168.885 503.205L139.741 442.63L170.785 486.134L196.761 503.205L212.6 516.972L230.973 530.739L260.75 543.728H262.65V458.249L249.403 445.551L149.666 392.327L111.504 371.787L91.2168 322.78L124.951 364.307L236.538 419.769L262.65 431.605V374.896L269.619 279.076L291.794 137V323.191Z" fill="black" fill-opacity="0.2"/>
</g>
<g filter="url(#filter6_f_21_161)">
<path d="M300.5 6C361.527 6 425.5 73.2274 425.5 121C425.5 124.028 425.241 126.904 424.744 129.637C483.304 132.813 470.704 148.408 490.5 188C490.5 196.083 483.755 205.88 472.244 216.365C543.707 237.413 597.5 285.346 597.5 327C597.5 358.379 561.324 382.829 510.834 398.097C563.624 412.783 600 443.715 600 479.5C600 485.226 599.066 490.826 597.285 496.257C604.26 520.708 601.5 553.399 601.5 579.107C588.5 641.107 552 660.107 464.5 660.107C439.868 660.107 417.979 646.29 400.854 626.761C388.58 633.601 374.497 637.5 358.5 637.5C330.021 637.5 296.113 627.559 264.721 611.264C225.18 643.804 166.974 662 131.004 662C72.4597 662 25 597.305 25 517.5C25 505.66 26.045 494.152 28.0156 483.139C14.2242 469.463 6 452.229 6 433.5C6 406.783 22.7342 383.105 48.4951 368.463C36.7398 353.65 30 336.406 30 318C30 268.932 77.8862 228.119 141.051 219.624C137.681 201.67 137 184.7 137 172.802C137 158.879 157.56 149.34 188.189 142.819C191.617 93.747 241.608 6 300.5 6ZM351.455 394.712C350.998 398.279 350.597 401.879 350.286 405.479C353.775 404.075 357.367 402.749 361.055 401.506C357.684 399.076 354.486 396.817 351.455 394.712ZM263.406 354.787C247.15 357.826 223.837 365.346 195.534 388.736C197.603 391.137 199.511 393.63 201.244 396.204C203.217 397.322 205.19 398.473 207.161 399.658C223.207 381.973 242.688 366.415 263.406 354.787ZM336.893 288.661C317.057 295.561 297.151 301.166 278.443 304.818C280.799 314.134 282 323.632 282 333C284.731 337.349 286.628 340.665 287.74 343.216C295.722 340.098 303.758 337.627 311.733 335.896C312.92 333.243 314.182 330.294 315.5 327C332.912 321.694 336.304 306.543 336.893 288.661Z" fill="#0AA61A"/>
</g>
<path d="M109.936 525.703C110.313 525.702 110.676 525.851 110.943 526.117C112.445 527.713 113.509 529.194 114.779 530.642C121.299 538.317 129.618 544.32 138.627 548.925C159.939 551.208 181.859 545.247 201.824 537.31C201.827 537.308 201.831 537.307 201.834 537.306C204.306 536.182 206.764 535.283 209.185 534.314C210.983 533.603 212.769 532.877 214.555 532.13C214.945 531.967 215.384 531.966 215.775 532.127C216.165 532.288 216.477 532.598 216.639 532.989C216.802 533.38 216.802 533.82 216.641 534.211C216.48 534.601 216.17 534.912 215.78 535.073C213.973 535.821 212.161 536.548 210.345 537.259C207.902 538.224 205.432 539.122 203.132 540.157C203.12 540.163 203.106 540.169 203.093 540.175L203.049 540.194C182.506 548.213 160.618 554.109 138.152 551.734C138.092 551.725 138.031 551.715 137.971 551.706L137.544 551.568C128.21 546.828 119.463 540.554 112.62 532.496C111.344 531.036 110.082 529.344 108.937 528.135C108.67 527.869 108.519 527.507 108.517 527.13C108.516 526.753 108.665 526.391 108.931 526.123C109.197 525.855 109.559 525.704 109.936 525.703ZM420.002 495.743C431.884 491.296 445.007 488.691 457.805 491.953C459.172 492.331 460.521 492.795 461.835 493.36C462.202 493.519 462.493 493.816 462.641 494.188C462.789 494.56 462.783 494.977 462.625 495.345C462.466 495.712 462.168 496.002 461.797 496.15C461.424 496.299 461.008 496.293 460.64 496.135C459.465 495.629 458.247 495.209 457.001 494.864C445.347 491.856 432.611 494.235 421.228 498.509C413.694 503.342 407.885 510.708 403.631 518.649C402.518 520.863 401.339 522.955 400.173 525.15C399.539 526.336 398.897 527.547 398.224 528.775C398.21 528.802 398.188 528.825 398.161 528.84C398.134 528.854 398.103 528.859 398.074 528.852C398.045 528.844 398.02 528.827 398.003 528.801C397.986 528.775 397.979 528.743 397.978 528.713C397.968 527.309 398.056 525.912 398.274 524.522C398.67 521.942 399.567 519.44 400.71 517.169C400.712 517.165 400.714 517.16 400.716 517.155L400.735 517.121C405.247 508.721 411.526 501.123 419.711 495.894C419.722 495.887 419.733 495.879 419.744 495.872L420.002 495.743ZM386.646 401.113C387.006 401.081 387.366 401.192 387.643 401.424C389.016 402.568 390.432 403.673 391.877 404.738C403.226 413.005 416.212 419.396 429.993 421.879C445.484 422.046 461.112 419.662 475.747 414.774L475.733 414.778C475.736 414.777 475.74 414.776 475.743 414.775C478.346 413.855 480.913 412.947 483.303 411.795C484.879 411.039 486.406 410.165 487.921 409.22C488.277 408.997 488.708 408.925 489.118 409.02C489.527 409.116 489.883 409.371 490.105 409.728C490.327 410.086 490.399 410.517 490.303 410.927C490.208 411.336 489.953 411.691 489.596 411.913C488.021 412.893 486.381 413.833 484.674 414.649C482.073 415.899 479.403 416.832 476.782 417.747C476.779 417.748 476.775 417.75 476.772 417.751L476.759 417.755C461.61 422.729 445.721 424.781 429.862 424.606C429.852 424.606 429.842 424.607 429.832 424.606L429.623 424.586C415.236 422.004 401.944 415.438 390.257 406.935C388.772 405.839 387.314 404.703 385.895 403.52C385.617 403.288 385.444 402.955 385.411 402.595C385.378 402.234 385.49 401.875 385.721 401.598C385.953 401.32 386.286 401.146 386.646 401.113ZM108.293 367.158C108.642 367.151 108.98 367.282 109.232 367.523C110.396 368.639 111.599 369.71 112.84 370.735C123.576 379.683 137.054 384.693 150.762 387.651C162.158 387.556 173.932 386.878 184.335 383.049C184.336 383.048 184.337 383.047 184.338 383.047C187.773 381.662 190.968 380.027 194.13 378.107C195.518 377.27 196.879 376.406 198.248 375.51C198.53 375.325 198.874 375.254 199.207 375.316C199.54 375.379 199.835 375.569 200.026 375.847C200.217 376.124 200.291 376.467 200.231 376.801C200.171 377.134 199.982 377.431 199.709 377.629C198.359 378.606 197.003 379.546 195.599 380.457C192.432 382.531 188.981 384.366 185.474 385.775C185.473 385.776 185.471 385.776 185.462 385.78C174.083 389.938 162.272 390.166 150.637 390.287C150.632 390.287 150.626 390.286 150.621 390.286L150.341 390.257C136.375 387.258 122.373 382.109 111.162 372.766C109.872 371.7 108.621 370.586 107.41 369.426C107.158 369.184 107.012 368.852 107.005 368.503C106.997 368.154 107.128 367.816 107.37 367.563C107.611 367.311 107.944 367.166 108.293 367.158ZM230.725 249.35C230.976 249.182 231.284 249.121 231.58 249.181C231.875 249.24 232.136 249.414 232.303 249.665C232.471 249.916 232.532 250.225 232.473 250.52C232.414 250.816 232.239 251.077 231.988 251.244C231.276 251.718 230.554 252.183 229.833 252.638C225.233 255.521 220.522 258.157 215.763 260.714H215.762L215.734 260.728C211.661 262.8 207.391 264.753 202.913 265.918H202.912C197.665 267.288 192.353 267.949 187.035 268.41C186.188 268.482 185.341 268.548 184.493 268.607C184.364 268.616 184.232 268.582 184.127 268.504C184.022 268.426 183.951 268.311 183.929 268.185C183.908 268.058 183.938 267.926 184.012 267.818C184.087 267.71 184.2 267.635 184.325 267.602C185.146 267.383 185.969 267.17 186.792 266.962C191.957 265.643 197.156 264.553 202.201 263.233C206.499 262.114 210.709 260.726 214.715 258.692L214.709 258.694C219.428 256.159 224.104 253.542 228.619 250.711C229.327 250.265 230.035 249.81 230.725 249.35ZM422.69 230.329C422.935 230.166 423.235 230.106 423.524 230.164C423.813 230.222 424.067 230.392 424.23 230.637C424.393 230.882 424.453 231.182 424.395 231.471C424.337 231.759 424.167 232.013 423.923 232.177C422.187 233.334 420.413 234.434 418.604 235.473C408.651 241.157 397.68 245.187 386.22 246.594C385.998 246.62 385.777 246.644 385.558 246.667C377.494 247.264 371.04 242.472 364.753 239.484C364.531 239.378 364.299 239.27 364.078 239.17C361.04 237.559 357.938 240.391 355.147 243.1C352.31 245.849 349.273 248.838 345.34 250.601L345.191 250.656C344.994 250.717 344.768 250.78 344.573 250.83C334.916 252.745 325.54 252.62 316.05 252.88H315.906C315.524 252.88 315.138 252.877 314.753 252.872C312.684 252.827 310.544 252.821 308.375 252.341C308.068 252.277 307.797 252.092 307.624 251.829C307.45 251.566 307.386 251.246 307.448 250.938C307.509 250.631 307.691 250.36 307.953 250.184C308.214 250.008 308.535 249.941 308.843 250C310.712 250.39 312.733 250.351 314.773 250.373C315.15 250.374 315.53 250.374 315.906 250.374H316.009C325.379 250.118 335.036 250.144 343.933 248.367C344.076 248.33 344.234 248.283 344.376 248.241C347.749 246.712 350.538 244.029 353.378 241.264C354.834 239.879 356.296 238.417 358.245 237.279C360.125 236.085 363.026 235.767 365.132 236.846C365.371 236.954 365.62 237.07 365.856 237.184C372.403 240.377 378.527 245.009 385.327 244.458C385.537 244.436 385.75 244.413 385.965 244.388C397.035 243.032 407.79 239.097 417.499 233.547C419.265 232.532 420.996 231.459 422.69 230.329Z" fill="#072D0A"/>
<g filter="url(#filter7_d_21_161)">
<path d="M291.794 323.191L350.08 255.397L391.262 204.734L435.729 157.375L420.404 184.358L355.148 266.961L448.914 275.222L355.148 279.076L326.639 303.857L293.061 344.057L291.794 349.994V370.49L303.299 491.497L388.728 434.369L448.915 399.676L516.051 378.51L561 374.655L509.683 393.929L456.518 415.096L351.348 485.583L305.647 516.193L310.801 570.389L311.315 636.963L315.235 632.615L378.591 588.561L405.199 573.692L440.679 565.982L480.592 548.911L545.848 540.651L521.14 551.665L505.301 561.577L476.474 573.692L440.679 588.561L411.535 592.966L483.126 628.761L542.047 643.078L521.14 649.136L476.474 643.078L388.094 606.733L311.734 691.112L312.686 814.015C312.695 815.185 311.925 816.218 310.801 816.544L306.365 817.646L298.763 820.398L289.894 821.5H281.023L268.986 820.398L262.65 820.949L253.78 818.196L253.164 817.794C251.976 817.02 251.287 815.674 251.353 814.258L257.499 681.569L140.754 611.689L99.8271 600.676H64.9824L99.8271 594.618L140.754 600.676L213.233 641.427L256.314 658.845H258.553L262.65 570.389V562.693H260.75L212.6 543.728L196.761 530.739L170.785 516.972L72.585 493.843L20 472.366L90.3242 489.438L168.885 503.205L139.741 442.63L170.785 486.134L196.761 503.205L212.6 516.972L230.973 530.739L260.75 543.728H262.65V458.249L249.403 445.551L149.666 392.327L111.504 371.787L91.2168 322.78L124.951 364.307L236.538 419.769L262.65 431.605V374.896L269.619 279.076L291.794 137V323.191Z" fill="url(#paint1_linear_21_161)"/>
<path d="M291.794 323.191L350.08 255.397L391.262 204.734L435.729 157.375L420.404 184.358L355.148 266.961L448.914 275.222L355.148 279.076L326.639 303.857L293.061 344.057L291.794 349.994V370.49L303.299 491.497L388.728 434.369L448.915 399.676L516.051 378.51L561 374.655L509.683 393.929L456.518 415.096L351.348 485.583L305.647 516.193L310.801 570.389L311.315 636.963L315.235 632.615L378.591 588.561L405.199 573.692L440.679 565.982L480.592 548.911L545.848 540.651L521.14 551.665L505.301 561.577L476.474 573.692L440.679 588.561L411.535 592.966L483.126 628.761L542.047 643.078L521.14 649.136L476.474 643.078L388.094 606.733L311.734 691.112L312.686 814.015C312.695 815.185 311.925 816.218 310.801 816.544L306.365 817.646L298.763 820.398L289.894 821.5H281.023L268.986 820.398L262.65 820.949L253.78 818.196L253.164 817.794C251.976 817.02 251.287 815.674 251.353 814.258L257.499 681.569L140.754 611.689L99.8271 600.676H64.9824L99.8271 594.618L140.754 600.676L213.233 641.427L256.314 658.845H258.553L262.65 570.389V562.693H260.75L212.6 543.728L196.761 530.739L170.785 516.972L72.585 493.843L20 472.366L90.3242 489.438L168.885 503.205L139.741 442.63L170.785 486.134L196.761 503.205L212.6 516.972L230.973 530.739L260.75 543.728H262.65V458.249L249.403 445.551L149.666 392.327L111.504 371.787L91.2168 322.78L124.951 364.307L236.538 419.769L262.65 431.605V374.896L269.619 279.076L291.794 137V323.191Z" fill="black" fill-opacity="0.2"/>
</g>
<g filter="url(#filter8_f_21_161)">
<path d="M300.5 6C361.527 6 425.5 73.2274 425.5 121C425.5 124.028 425.241 126.904 424.744 129.637C483.304 132.813 470.704 148.408 490.5 188C490.5 196.083 483.755 205.88 472.244 216.365C543.707 237.413 597.5 285.346 597.5 327C597.5 358.379 561.324 382.829 510.834 398.097C563.624 412.783 600 443.715 600 479.5C600 485.226 599.066 490.826 597.285 496.257C604.26 520.708 601.5 553.399 601.5 579.107C588.5 641.107 552 660.107 464.5 660.107C439.868 660.107 417.979 646.29 400.854 626.761C388.58 633.601 374.497 637.5 358.5 637.5C330.021 637.5 296.113 627.559 264.721 611.264C225.18 643.804 166.974 662 131.004 662C72.4597 662 25 597.305 25 517.5C25 505.66 26.045 494.152 28.0156 483.139C14.2242 469.463 6 452.229 6 433.5C6 406.783 22.7342 383.105 48.4951 368.463C36.7398 353.65 30 336.406 30 318C30 268.932 77.8862 228.119 141.051 219.624C137.681 201.67 137 184.7 137 172.802C137 158.879 157.56 149.34 188.189 142.819C191.617 93.747 241.608 6 300.5 6ZM351.455 394.712C350.998 398.279 350.597 401.879 350.286 405.479C353.775 404.075 357.367 402.749 361.055 401.506C357.684 399.076 354.486 396.817 351.455 394.712ZM263.406 354.787C247.15 357.826 223.837 365.346 195.534 388.736C197.603 391.137 199.511 393.63 201.244 396.204C203.217 397.322 205.19 398.473 207.161 399.658C223.207 381.973 242.688 366.415 263.406 354.787ZM336.893 288.661C317.057 295.561 297.151 301.166 278.443 304.818C280.799 314.134 282 323.632 282 333C284.731 337.349 286.628 340.665 287.74 343.216C295.722 340.098 303.758 337.627 311.733 335.896C312.92 333.243 314.182 330.294 315.5 327C332.912 321.694 336.304 306.543 336.893 288.661Z" fill="#0AA61A"/>
</g>
<path d="M109.935 525.703C110.312 525.702 110.674 525.851 110.942 526.117C112.444 527.713 113.508 529.194 114.778 530.642C121.298 538.317 129.616 544.32 138.625 548.925C159.938 551.208 181.857 545.247 201.823 537.309C201.826 537.308 201.829 537.307 201.832 537.306C204.305 536.182 206.763 535.283 209.184 534.314C210.982 533.603 212.768 532.877 214.554 532.13C214.944 531.967 215.383 531.966 215.774 532.127C216.164 532.288 216.475 532.598 216.638 532.989C216.801 533.38 216.801 533.82 216.64 534.211C216.479 534.601 216.169 534.912 215.779 535.073C213.971 535.821 212.16 536.548 210.344 537.259C207.9 538.224 205.431 539.122 203.131 540.157C203.118 540.163 203.105 540.169 203.092 540.175L203.047 540.194C182.504 548.212 160.617 554.109 138.151 551.734C138.091 551.725 138.03 551.715 137.97 551.706L137.542 551.568C128.209 546.828 119.462 540.554 112.619 532.496C111.343 531.036 110.081 529.344 108.936 528.135C108.668 527.869 108.517 527.507 108.516 527.13C108.515 526.753 108.664 526.39 108.93 526.123C109.196 525.855 109.558 525.704 109.935 525.703ZM420 495.743C431.883 491.296 445.005 488.691 457.804 491.953C459.17 492.331 460.52 492.795 461.833 493.36C462.201 493.519 462.492 493.817 462.64 494.188C462.788 494.56 462.782 494.977 462.623 495.345C462.465 495.712 462.167 496.002 461.795 496.15C461.423 496.298 461.007 496.293 460.639 496.135C459.464 495.629 458.245 495.209 456.999 494.864C445.346 491.856 432.61 494.235 421.227 498.509C413.693 503.342 407.884 510.708 403.629 518.649C402.517 520.863 401.337 522.955 400.171 525.15C399.537 526.336 398.896 527.547 398.223 528.775C398.208 528.802 398.187 528.825 398.16 528.84C398.132 528.854 398.101 528.859 398.073 528.851C398.044 528.844 398.018 528.826 398.001 528.801C397.984 528.775 397.977 528.743 397.977 528.713C397.967 527.309 398.054 525.912 398.273 524.522C398.669 521.942 399.565 519.44 400.708 517.169C400.711 517.164 400.713 517.16 400.715 517.155L400.734 517.121C405.246 508.72 411.524 501.123 419.709 495.893C419.72 495.886 419.731 495.879 419.743 495.872L420 495.743ZM386.645 401.113C387.005 401.081 387.364 401.192 387.642 401.424C389.014 402.568 390.43 403.673 391.875 404.738C403.224 413.005 416.211 419.396 429.992 421.879C445.482 422.046 461.111 419.662 475.745 414.774L475.732 414.778C475.735 414.777 475.739 414.776 475.742 414.775C478.345 413.855 480.911 412.947 483.302 411.795C484.878 411.039 486.404 410.165 487.919 409.22C488.276 408.997 488.707 408.925 489.117 409.02C489.526 409.116 489.881 409.371 490.104 409.728C490.326 410.086 490.397 410.517 490.302 410.927C490.207 411.336 489.952 411.691 489.595 411.913C488.019 412.893 486.38 413.833 484.673 414.649C482.072 415.899 479.401 416.832 476.781 417.747C476.778 417.748 476.774 417.75 476.771 417.751L476.758 417.755C461.608 422.729 445.72 424.781 429.861 424.606C429.851 424.606 429.84 424.607 429.83 424.606L429.621 424.586C415.235 422.004 401.943 415.438 390.256 406.934C388.77 405.839 387.313 404.703 385.894 403.519C385.616 403.288 385.442 402.955 385.41 402.595C385.377 402.234 385.488 401.875 385.72 401.598C385.952 401.32 386.285 401.146 386.645 401.113ZM108.292 367.158C108.641 367.151 108.98 367.282 109.232 367.523C110.396 368.639 111.599 369.71 112.839 370.735C123.576 379.683 137.053 384.693 150.762 387.651C162.158 387.556 173.932 386.877 184.334 383.049L184.337 383.047C187.773 381.662 190.968 380.027 194.129 378.107C195.518 377.27 196.879 376.406 198.247 375.51C198.53 375.325 198.874 375.254 199.206 375.316C199.539 375.379 199.834 375.569 200.026 375.847C200.217 376.124 200.29 376.467 200.231 376.801C200.171 377.134 199.981 377.431 199.708 377.629C198.359 378.606 197.002 379.546 195.599 380.457C192.431 382.531 188.98 384.366 185.474 385.775C185.473 385.776 185.471 385.776 185.461 385.78C174.083 389.937 162.272 390.166 150.637 390.287C150.632 390.287 150.626 390.286 150.62 390.286L150.341 390.257C136.375 387.258 122.373 382.109 111.161 372.766C109.872 371.7 108.62 370.586 107.41 369.426C107.157 369.184 107.012 368.852 107.004 368.503C106.997 368.154 107.128 367.816 107.369 367.563C107.611 367.311 107.943 367.166 108.292 367.158ZM230.724 249.35C230.975 249.182 231.282 249.121 231.578 249.181C231.874 249.24 232.135 249.414 232.302 249.665C232.47 249.916 232.531 250.224 232.472 250.52C232.413 250.816 232.238 251.077 231.987 251.244C231.275 251.718 230.553 252.183 229.831 252.638C225.232 255.521 220.521 258.157 215.762 260.714H215.761L215.733 260.728C211.659 262.8 207.389 264.753 202.911 265.918H202.911C197.663 267.288 192.352 267.949 187.034 268.41C186.187 268.482 185.339 268.548 184.492 268.607C184.362 268.616 184.231 268.582 184.125 268.504C184.02 268.426 183.949 268.311 183.928 268.184C183.907 268.058 183.937 267.926 184.011 267.818C184.085 267.71 184.199 267.635 184.324 267.601C185.145 267.383 185.968 267.17 186.79 266.962C191.956 265.643 197.154 264.553 202.2 263.233C206.498 262.114 210.707 260.725 214.713 258.692L214.707 258.694C219.427 256.159 224.103 253.541 228.618 250.711C229.326 250.265 230.033 249.81 230.724 249.35ZM422.689 230.329C422.934 230.166 423.234 230.106 423.523 230.164C423.811 230.222 424.066 230.392 424.229 230.637C424.392 230.882 424.452 231.182 424.394 231.471C424.336 231.759 424.166 232.013 423.921 232.177C422.186 233.334 420.412 234.434 418.603 235.473C408.65 241.157 397.679 245.187 386.219 246.594C385.997 246.619 385.776 246.644 385.557 246.667C377.493 247.264 371.039 242.472 364.751 239.484C364.529 239.378 364.297 239.27 364.077 239.17C361.038 237.559 357.936 240.391 355.146 243.1C352.309 245.849 349.272 248.838 345.338 250.601L345.19 250.656C344.993 250.717 344.766 250.78 344.572 250.83C334.915 252.745 325.539 252.62 316.049 252.88H315.905C315.523 252.879 315.136 252.877 314.751 252.872C312.683 252.827 310.543 252.821 308.373 252.341C308.066 252.277 307.796 252.092 307.622 251.829C307.449 251.566 307.385 251.246 307.447 250.938C307.508 250.631 307.69 250.359 307.952 250.184C308.213 250.008 308.534 249.941 308.842 250C310.711 250.39 312.731 250.351 314.772 250.373C315.149 250.374 315.528 250.374 315.905 250.374H316.008C325.378 250.118 335.035 250.144 343.932 248.367C344.075 248.33 344.233 248.283 344.374 248.241C347.748 246.712 350.536 244.029 353.376 241.264C354.833 239.879 356.295 238.417 358.244 237.279C360.124 236.085 363.024 235.767 365.13 236.846C365.37 236.954 365.619 237.07 365.855 237.184C372.401 240.377 378.526 245.008 385.326 244.458C385.536 244.436 385.749 244.412 385.963 244.388C397.034 243.032 407.789 239.097 417.497 233.547C419.263 232.532 420.995 231.459 422.689 230.329Z" fill="#072D0A"/>
<defs>
<filter id="filter0_dn_21_161" x="2.19531" y="767.197" width="563" height="501.5" filterUnits="userSpaceOnUse" color-interpolation-filters="sRGB">
<feFlood flood-opacity="0" result="BackgroundImageFix"/>
<feColorMatrix in="SourceAlpha" type="matrix" values="0 0 0 0 0 0 0 0 0 0 0 0 0 0 0 0 0 0 127 0" result="hardAlpha"/>
<feOffset dy="4"/>
<feGaussianBlur stdDeviation="2"/>
<feComposite in2="hardAlpha" operator="out"/>
<feColorMatrix type="matrix" values="0 0 0 0 0 0 0 0 0 0 0 0 0 0 0 0 0 0 0.25 0"/>
<feBlend mode="normal" in2="BackgroundImageFix" result="effect1_dropShadow_21_161"/>
<feBlend mode="normal" in="SourceGraphic" in2="BackgroundImageFix" result="shape"/>
<feTurbulence type="fractalNoise" baseFrequency="2 2" stitchTiles="stitch" numOctaves="3" result="noise" seed="3852" />
<feColorMatrix in="noise" type="luminanceToAlpha" result="alphaNoise" />
<feComponentTransfer in="alphaNoise" result="coloredNoise1">
<feFuncA type="discrete" tableValues="0 0 0 0 0 0 0 0 0 0 0 0 0 0 0 0 0 1 1 1 1 1 1 1 1 1 1 1 1 1 1 1 1 0 0 0 0 0 0 0 0 0 0 0 0 0 0 0 0 0 0 0 0 0 0 0 0 0 0 0 0 0 0 0 0 0 0 0 0 0 0 0 0 0 0 0 0 0 0 0 0 0 0 0 0 0 0 0 0 0 0 0 0 0 0 0 0 0 0 0 "/>
</feComponentTransfer>
<feComposite operator="in" in2="shape" in="coloredNoise1" result="noise1Clipped" />
<feComponentTransfer in="alphaNoise" result="coloredNoise2">
<feFuncA type="discrete" tableValues="0 0 0 0 0 0 0 0 0 0 0 0 0 0 0 0 0 0 0 0 0 0 0 0 0 0 0 0 0 0 0 0 0 0 0 0 0 0 0 0 0 0 0 0 0 0 0 0 0 0 0 0 0 0 0 0 0 0 0 0 0 0 0 0 0 0 0 1 1 1 1 1 1 1 1 1 1 1 1 1 1 1 1 0 0 0 0 0 0 0 0 0 0 0 0 0 0 0 0 0 "/>
</feComponentTransfer>
<feComposite operator="in" in2="shape" in="coloredNoise2" result="noise2Clipped" />
<feFlood flood-color="rgba(0, 0, 0, 0.25)" result="color1Flood" />
<feComposite operator="in" in2="noise1Clipped" in="color1Flood" result="color1" />
<feFlood flood-color="rgba(255, 255, 255, 0.25)" result="color2Flood" />
<feComposite operator="in" in2="noise2Clipped" in="color2Flood" result="color2" />
<feMerge result="effect2_noise_21_161">
<feMergeNode in="shape" />
<feMergeNode in="color1" />
<feMergeNode in="color2" />
</feMerge>
<feBlend mode="normal" in="effect2_noise_21_161" in2="effect1_dropShadow_21_161" result="effect2_noise_21_161"/>
</filter>
<filter id="filter1_f_21_161" x="2" y="776.197" width="192.195" height="479" filterUnits="userSpaceOnUse" color-interpolation-filters="sRGB">
<feFlood flood-opacity="0" result="BackgroundImageFix"/>
<feBlend mode="normal" in="SourceGraphic" in2="BackgroundImageFix" result="shape"/>
<feGaussianBlur stdDeviation="2" result="effect1_foregroundBlur_21_161"/>
</filter>
<filter id="filter2_dn_21_161" x="2.19531" y="767.197" width="563" height="501.5" filterUnits="userSpaceOnUse" color-interpolation-filters="sRGB">
<feFlood flood-opacity="0" result="BackgroundImageFix"/>
<feColorMatrix in="SourceAlpha" type="matrix" values="0 0 0 0 0 0 0 0 0 0 0 0 0 0 0 0 0 0 127 0" result="hardAlpha"/>
<feOffset dy="4"/>
<feGaussianBlur stdDeviation="2"/>
<feComposite in2="hardAlpha" operator="out"/>
<feColorMatrix type="matrix" values="0 0 0 0 0 0 0 0 0 0 0 0 0 0 0 0 0 0 0.25 0"/>
<feBlend mode="normal" in2="BackgroundImageFix" result="effect1_dropShadow_21_161"/>
<feBlend mode="normal" in="SourceGraphic" in2="BackgroundImageFix" result="shape"/>
<feTurbulence type="fractalNoise" baseFrequency="2 2" stitchTiles="stitch" numOctaves="3" result="noise" seed="3852" />
<feColorMatrix in="noise" type="luminanceToAlpha" result="alphaNoise" />
<feComponentTransfer in="alphaNoise" result="coloredNoise1">
<feFuncA type="discrete" tableValues="0 0 0 0 0 0 0 0 0 0 0 0 0 0 0 0 0 1 1 1 1 1 1 1 1 1 1 1 1 1 1 1 1 0 0 0 0 0 0 0 0 0 0 0 0 0 0 0 0 0 0 0 0 0 0 0 0 0 0 0 0 0 0 0 0 0 0 0 0 0 0 0 0 0 0 0 0 0 0 0 0 0 0 0 0 0 0 0 0 0 0 0 0 0 0 0 0 0 0 0 "/>
</feComponentTransfer>
<feComposite operator="in" in2="shape" in="coloredNoise1" result="noise1Clipped" />
<feComponentTransfer in="alphaNoise" result="coloredNoise2">
<feFuncA type="discrete" tableValues="0 0 0 0 0 0 0 0 0 0 0 0 0 0 0 0 0 0 0 0 0 0 0 0 0 0 0 0 0 0 0 0 0 0 0 0 0 0 0 0 0 0 0 0 0 0 0 0 0 0 0 0 0 0 0 0 0 0 0 0 0 0 0 0 0 0 0 1 1 1 1 1 1 1 1 1 1 1 1 1 1 1 1 0 0 0 0 0 0 0 0 0 0 0 0 0 0 0 0 0 "/>
</feComponentTransfer>
<feComposite operator="in" in2="shape" in="coloredNoise2" result="noise2Clipped" />
<feFlood flood-color="rgba(0, 0, 0, 0.25)" result="color1Flood" />
<feComposite operator="in" in2="noise1Clipped" in="color1Flood" result="color1" />
<feFlood flood-color="rgba(255, 255, 255, 0.25)" result="color2Flood" />
<feComposite operator="in" in2="noise2Clipped" in="color2Flood" result="color2" />
<feMerge result="effect2_noise_21_161">
<feMergeNode in="shape" />
<feMergeNode in="color1" />
<feMergeNode in="color2" />
</feMerge>
<feBlend mode="normal" in="effect2_noise_21_161" in2="effect1_dropShadow_21_161" result="effect2_noise_21_161"/>
</filter>
<filter id="filter3_f_21_161" x="2" y="776.197" width="192.195" height="479" filterUnits="userSpaceOnUse" color-interpolation-filters="sRGB">
<feFlood flood-opacity="0" result="BackgroundImageFix"/>
<feBlend mode="normal" in="SourceGraphic" in2="BackgroundImageFix" result="shape"/>
<feGaussianBlur stdDeviation="2" result="effect1_foregroundBlur_21_161"/>
</filter>
<filter id="filter4_gf_21_161" x="26.1953" y="758" width="525" height="107.197" filterUnits="userSpaceOnUse" color-interpolation-filters="sRGB">
<feFlood flood-opacity="0" result="BackgroundImageFix"/>
<feBlend mode="normal" in="SourceGraphic" in2="BackgroundImageFix" result="shape"/>
<feTurbulence type="fractalNoise" baseFrequency="0.25 0.25" numOctaves="3" seed="336" />
<feDisplacementMap in="shape" scale="8" xChannelSelector="R" yChannelSelector="G" result="displacedImage" width="100%" height="100%" />
<feMerge result="effect1_texture_21_161">
<feMergeNode in="displacedImage"/>
</feMerge>
<feGaussianBlur stdDeviation="2" result="effect2_foregroundBlur_21_161"/>
</filter>
<filter id="filter5_d_21_161" x="16" y="137" width="549" height="692.5" filterUnits="userSpaceOnUse" color-interpolation-filters="sRGB">
<feFlood flood-opacity="0" result="BackgroundImageFix"/>
<feColorMatrix in="SourceAlpha" type="matrix" values="0 0 0 0 0 0 0 0 0 0 0 0 0 0 0 0 0 0 127 0" result="hardAlpha"/>
<feOffset dy="4"/>
<feGaussianBlur stdDeviation="2"/>
<feComposite in2="hardAlpha" operator="out"/>
<feColorMatrix type="matrix" values="0 0 0 0 0 0 0 0 0 0 0 0 0 0 0 0 0 0 0.25 0"/>
<feBlend mode="normal" in2="BackgroundImageFix" result="effect1_dropShadow_21_161"/>
<feBlend mode="normal" in="SourceGraphic" in2="effect1_dropShadow_21_161" result="shape"/>
</filter>
<filter id="filter6_f_21_161" x="0" y="0" width="608.039" height="668" filterUnits="userSpaceOnUse" color-interpolation-filters="sRGB">
<feFlood flood-opacity="0" result="BackgroundImageFix"/>
<feBlend mode="normal" in="SourceGraphic" in2="BackgroundImageFix" result="shape"/>
<feGaussianBlur stdDeviation="3" result="effect1_foregroundBlur_21_161"/>
</filter>
<filter id="filter7_d_21_161" x="16" y="137" width="549" height="692.5" filterUnits="userSpaceOnUse" color-interpolation-filters="sRGB">
<feFlood flood-opacity="0" result="BackgroundImageFix"/>
<feColorMatrix in="SourceAlpha" type="matrix" values="0 0 0 0 0 0 0 0 0 0 0 0 0 0 0 0 0 0 127 0" result="hardAlpha"/>
<feOffset dy="4"/>
<feGaussianBlur stdDeviation="2"/>
<feComposite in2="hardAlpha" operator="out"/>
<feColorMatrix type="matrix" values="0 0 0 0 0 0 0 0 0 0 0 0 0 0 0 0 0 0 0.25 0"/>
<feBlend mode="normal" in2="BackgroundImageFix" result="effect1_dropShadow_21_161"/>
<feBlend mode="normal" in="SourceGraphic" in2="effect1_dropShadow_21_161" result="shape"/>
</filter>
<filter id="filter8_f_21_161" x="0" y="0" width="608.039" height="668" filterUnits="userSpaceOnUse" color-interpolation-filters="sRGB">
<feFlood flood-opacity="0" result="BackgroundImageFix"/>
<feBlend mode="normal" in="SourceGraphic" in2="BackgroundImageFix" result="shape"/>
<feGaussianBlur stdDeviation="3" result="effect1_foregroundBlur_21_161"/>
</filter>
<linearGradient id="paint0_linear_21_161" x1="290.133" y1="840.223" x2="290.133" y2="263.657" gradientUnits="userSpaceOnUse">
<stop stop-color="#623F24"/>
<stop offset="1" stop-color="#946846"/>
</linearGradient>
<linearGradient id="paint1_linear_21_161" x1="290.133" y1="840.223" x2="290.133" y2="263.657" gradientUnits="userSpaceOnUse">
<stop stop-color="#623F24"/>
<stop offset="1" stop-color="#946846"/>
</linearGradient>
</defs>
</svg>
